<svg xmlns="http://www.w3.org/2000/svg" width="70" height="70" fill="none"><path fill="#151716" d="M4.669 2.333A4.66 4.66 0 0 0 0 7v55.998a4.663 4.663 0 0 0 4.669 4.669h60.664A4.664 4.664 0 0 0 70 62.997V7a4.662 4.662 0 0 0-4.667-4.667H4.67Zm0 2.334h60.664A2.319 2.319 0 0 1 67.667 7v7.002a2.318 2.318 0 0 1-2.334 2.324H4.67a2.31 2.31 0 0 1-2.333-2.324V7c0-1.28 1.02-2.333 2.333-2.333Zm15.16 2.33a3.503 3.503 0 0 0-3.498 3.496 3.496 3.496 0 0 0 3.498 3.505 3.502 3.502 0 0 0 3.504-3.505 3.509 3.509 0 0 0-3.504-3.495ZM37.336 7a3.496 3.496 0 0 0-3.503 3.495 3.506 3.506 0 0 0 3.503 3.507h22.166a3.5 3.5 0 0 0 3.496-3.507A3.49 3.49 0 0 0 59.502 7H37.336ZM19.829 9.331a1.166 1.166 0 1 1-1.162 1.162c0-.658.53-1.162 1.162-1.162Zm17.507.002h22.166c.667 0 1.162.528 1.162 1.162a1.16 1.16 0 0 1-1.162 1.174H37.336a1.17 1.17 0 0 1-1.174-1.174 1.16 1.16 0 0 1 1.174-1.162Zm-35 8.71c.69.402 1.48.617 2.333.617h60.664c.853 0 1.644-.215 2.334-.618v44.956a2.322 2.322 0 0 1-2.334 2.335H4.67a2.319 2.319 0 0 1-2.333-2.335V18.042Zm32.666 4.124a5.836 5.836 0 0 0-5.382 8.08 9.05 9.05 0 0 0-5.12 8.166v1.43a3.314 3.314 0 0 0 3.325 3.324h14.353a3.314 3.314 0 0 0 3.324-3.325v-1.429a9.05 9.05 0 0 0-5.12-8.166 5.834 5.834 0 0 0-5.38-8.08Zm0 2.337A3.49 3.49 0 0 1 38.5 28a3.495 3.495 0 0 1-3.498 3.498 3.497 3.497 0 1 1 0-6.994Zm-4.049 7.698a5.84 5.84 0 0 0 8.096 0 6.72 6.72 0 0 1 4.118 6.211v1.43a.985.985 0 0 1-.99.99H27.826a.985.985 0 0 1-.99-.99v-1.43a6.72 6.72 0 0 1 4.118-6.211ZM29.167 59.5c-1.556 0-1.556 2.333 0 2.333H59.5c1.556 0 1.556-2.333 0-2.333H29.167Z"/><path fill="#fff" d="M10.495 6.998a3.501 3.501 0 0 0 0 7A3.502 3.502 0 0 0 14 10.493a3.509 3.509 0 0 0-3.505-3.495Zm0 2.333a1.166 1.166 0 1 1-1.162 1.162c0-.658.532-1.162 1.162-1.162Zm4.672 36.167a4.669 4.669 0 0 0-4.67 4.669v.893a3.47 3.47 0 0 0-1.161 2.602v4.669a3.497 3.497 0 0 0 3.497 3.505H17.5a3.5 3.5 0 0 0 3.498-3.505v-4.669c0-1.02-.422-1.93-1.162-2.602v-.893a4.669 4.669 0 0 0-4.67-4.67Zm17.436 1.17a1.166 1.166 0 0 0-1.099 1.263v1.757l-1.515-1.51a1.11 1.11 0 0 0-.925-.34c-.988.098-1.432 1.293-.72 1.985l2.668 2.677-2.668 2.675c-.712.692-.268 1.887.72 1.985.353.03.689-.084.934-.34l2.669-2.67 2.654 2.652c1.095 1.077 2.724-.417 1.691-1.604l-2.691-2.7 2.668-2.675c1.088-1.184-.6-2.709-1.668-1.627l-1.492 1.49V47.93a1.167 1.167 0 0 0-1.226-1.262Zm11.664 0a1.166 1.166 0 0 0-1.098 1.263v1.757l-1.515-1.51a1.112 1.112 0 0 0-.926-.34c-.987.098-1.432 1.293-.72 1.985l2.669 2.677-2.669 2.675c-.712.692-.267 1.887.72 1.985.354.03.689-.084.935-.34l2.668-2.67 2.655 2.652c1.094 1.077 2.723-.417 1.69-1.604l-2.69-2.7 2.668-2.675c1.087-1.184-.601-2.709-1.668-1.627l-1.493 1.49V47.93c.06-.705-.519-1.3-1.226-1.262Zm11.667 0a1.166 1.166 0 0 0-1.098 1.263v1.757l-1.516-1.51a1.112 1.112 0 0 0-.925-.34c-.988.098-1.432 1.293-.72 1.985l2.668 2.677-2.668 2.675c-.712.692-.267 1.887.72 1.985.353.03.689-.084.934-.34l2.669-2.67 2.654 2.652c1.095 1.077 2.724-.417 1.691-1.604l-2.691-2.7 2.668-2.675c1.088-1.184-.6-2.709-1.668-1.627l-1.492 1.49V47.93c.059-.705-.519-1.3-1.226-1.262Zm-40.767 1.165a2.32 2.32 0 0 1 2.333 2.334h-4.667a2.32 2.32 0 0 1 2.334-2.334ZM12.833 52.5H17.5c.666 0 1.162.528 1.162 1.162v4.669c0 .666-.528 1.171-1.162 1.171h-4.667a1.153 1.153 0 0 1-1.162-1.171v-4.669a1.16 1.16 0 0 1 1.162-1.162Zm11.667 0a1.167 1.167 0 1 0 0 2.333 1.167 1.167 0 0 0 0-2.333Zm-9.333 2.333a1.167 1.167 0 1 0 0 2.334 1.167 1.167 0 0 0 0-2.334Zm9.333 2.334a1.167 1.167 0 1 0 0 2.333 1.167 1.167 0 0 0 0-2.333Z"/></svg>