<svg xmlns="http://www.w3.org/2000/svg" width="34" height="34" fill="none"><path fill="#CBD3D9" d="M31.3 10.603h-2.828l-8.37-8.37a2.243 2.243 0 0 0-1.597-.661 2.24 2.24 0 0 0-1.51.583 2.254 2.254 0 0 0-3.097.078l-8.37 8.37H2.702a2.26 2.26 0 0 0-2.258 2.258v1.505A2.26 2.26 0 0 0 2.7 16.624h.1l1.795 12.574a3.782 3.782 0 0 0 3.726 3.23h17.356a3.781 3.781 0 0 0 3.725-3.23L31.2 16.624h.1a2.26 2.26 0 0 0 2.257-2.258v-1.505a2.26 2.26 0 0 0-2.257-2.258ZM17.974 3.297a.77.77 0 0 1 1.064 0l7.305 7.306h-2.129l-6.24-6.242a.746.746 0 0 1-.221-.531c0-.201.078-.39.22-.533ZM17 5.518l5.086 5.086H11.914L17 5.517Zm-2.037-2.22a.754.754 0 0 1 1.285.533c0 .2-.079.39-.22.532l-6.242 6.241H7.657l7.306-7.306Zm12.95 25.688a2.27 2.27 0 0 1-2.235 1.938H8.322a2.27 2.27 0 0 1-2.235-1.938L4.32 16.624h25.358l-1.765 12.361Zm4.14-14.619a.753.753 0 0 1-.753.753H2.7a.753.753 0 0 1-.752-.753v-1.505c0-.415.338-.753.753-.753H31.3c.415 0 .752.338.752.753v1.505Zm-15.805 14.3h1.505c.83 0 1.505-.676 1.505-1.506v-6.773c0-.83-.675-1.505-1.505-1.505h-1.505c-.83 0-1.506.675-1.506 1.505v6.773c0 .83.675 1.506 1.506 1.506Zm0-8.28h1.505v6.774h-1.505v-6.773Zm-6.774 8.28h1.505c.83 0 1.506-.676 1.506-1.506v-6.773c0-.83-.675-1.505-1.506-1.505H9.474c-.83 0-1.505.675-1.505 1.505v6.773c0 .83.675 1.506 1.505 1.506Zm0-8.28h1.505l.001 6.774H9.474v-6.773Zm13.547 8.28h1.505c.83 0 1.505-.676 1.505-1.506v-6.773c0-.83-.675-1.505-1.505-1.505h-1.505c-.83 0-1.505.675-1.505 1.505v6.773c0 .83.675 1.506 1.505 1.506Zm0-8.28h1.505l.001 6.774h-1.506v-6.773Z"/></svg>