<svg xmlns="http://www.w3.org/2000/svg" width="14" height="15" fill="none"><path fill="#6F6F6F" d="M12.5 1.5H12V1a.5.5 0 0 0-1 0v.5H9V1a.5.5 0 0 0-1 0v.5H6V1a.5.5 0 0 0-1 0v.5H3V1a.5.5 0 0 0-1 0v.5h-.5A1.5 1.5 0 0 0 0 3v10a1.5 1.5 0 0 0 1.5 1.5h11A1.5 1.5 0 0 0 14 13V3a1.5 1.5 0 0 0-1.5-1.5ZM13 13a.5.5 0 0 1-.5.5h-11A.5.5 0 0 1 1 13V6h12v7Zm0-8H1V3a.5.5 0 0 1 .5-.5H2V3a.5.5 0 1 0 1 0v-.5h2V3a.5.5 0 1 0 1 0v-.5h2V3a.5.5 0 1 0 1 0v-.5h2V3a.5.5 0 0 0 1 0v-.5h.5a.5.5 0 0 1 .5.5v2Z"/><path fill="#6F6F6F" d="M6.5 9h1a.5.5 0 1 0 0-1h-1a.5.5 0 1 0 0 1ZM3 9h1a.5.5 0 1 0 0-1H3a.5.5 0 1 0 0 1ZM10 9h1a.5.5 0 0 0 0-1h-1a.5.5 0 1 0 0 1ZM6.5 11.5h1a.5.5 0 0 0 0-1h-1a.5.5 0 0 0 0 1ZM3 11.5h1a.5.5 0 0 0 0-1H3a.5.5 0 0 0 0 1Z"/></svg>