<svg xmlns="http://www.w3.org/2000/svg" width="32" height="32" fill="none"><g fill="#fff" clip-path="url(#a)"><path d="M29.344 6.937a.531.531 0 0 0-.532-.532h-.008C23.56-.593 13.668-2.085 6.594 3.057c-7.075 5.141-8.71 15.01-3.674 22.158 5.037 7.15 14.881 8.93 22.103 3.998 7.222-4.932 9.146-14.748 4.32-22.041v-.235ZM26 15.593l-6.375-6.375-1.75-1.75H28.26l.022.03v10.375l-2.28-2.28ZM16.062 26.06h1.594v1.063h1.063v-1.186c.45-.102.883-.27 1.284-.497l.996.996.752-.751-.879-.878c.287-.26.54-.552.757-.872h1.34v-1.062h-.81c.183-.511.277-1.05.278-1.594a1.063 1.063 0 0 1 2.125 0 6.914 6.914 0 0 1-6.906 6.906h-1.593a1.062 1.062 0 1 1 0-2.125Zm8.354-6.69a2.106 2.106 0 0 0-.916-.216 2.125 2.125 0 0 0-2.125 2.125A3.723 3.723 0 0 1 17.656 25h-.996a.458.458 0 0 0-.096-.013 9.153 9.153 0 0 1-3.745-.594c3.681-1.028 8.025-3.297 8.025-6.3 0-3.958-7.974-7.948-11.66-7.968h9.846l6.052 6.052a8.92 8.92 0 0 1-.666 3.195ZM11.11 23.719a10.56 10.56 0 0 1-1.955.217 5.85 5.85 0 0 1-5.843-5.843c0-3.194 2.552-6.906 5.843-6.906 3.423 0 10.625 3.869 10.625 6.906 0 2.568-5.019 4.916-8.663 5.625l-.007.001Zm8.515-17.69a.532.532 0 0 0-.752 0l-.375.376h-1.905a.532.532 0 0 0-.376.907l1.75 1.75h-8.34l7.357-7.358 4.701 4.701h-1.905a.53.53 0 0 0-.155-.375v-.001Zm7.819.376h-4.256l-5.182-5.18a14.865 14.865 0 0 1 9.438 5.18Zm3.492 9.563c0 8.215-6.66 14.875-14.875 14.875S1.188 24.183 1.188 15.968 7.848 1.093 16.062 1.093h.03L7.97 9.217a.522.522 0 0 0-.01.738c-.091.124-.178.251-.265.378-3.157.893-5.445 4.552-5.445 7.76a6.914 6.914 0 0 0 6.906 6.906c.67-.013 1.338-.085 1.995-.216.988.55 2.061.93 3.175 1.123a2.12 2.12 0 0 0 1.736 3.343h1.594a7.977 7.977 0 0 0 7.969-7.969c0-.418-.124-.828-.357-1.175.42-.928.695-1.915.816-2.927l2.353 2.353a.531.531 0 0 0 .907-.376V9.281a14.782 14.782 0 0 1 1.593 6.687Z"/><path d="M22.03 8.826a.531.531 0 0 0-.75.751l4.78 4.781a.531.531 0 0 0 .752-.75L22.03 8.825ZM25.47 8.686a.531.531 0 0 0-.752.751l1.594 1.594a.531.531 0 0 0 .75-.751L25.47 8.686ZM16.75 3.905l-3.188 3.187a.531.531 0 1 0 .751.751l3.188-3.187a.531.531 0 0 0-.752-.751ZM8.625 13.843a4.25 4.25 0 1 0 0 8.5 4.25 4.25 0 0 0 0-8.5Zm0 7.437a3.188 3.188 0 1 1 0-6.375 3.188 3.188 0 0 1 0 6.375Z"/></g><defs><clipPath id="a"><path fill="#fff" d="M0 0h32v32H0z"/></clipPath></defs></svg>