<svg xmlns="http://www.w3.org/2000/svg" width="28" height="28" fill="none"><path fill="#fff" d="M24.313 2.75h-.938v-.938a.938.938 0 0 0-1.875 0v.938h-3.75v-.938a.938.938 0 0 0-1.875 0v.938h-3.75v-.938a.938.938 0 0 0-1.875 0v.938H6.5v-.938a.937.937 0 1 0-1.875 0v.938h-.938A2.813 2.813 0 0 0 .876 5.563v18.75a2.812 2.812 0 0 0 2.813 2.812h20.625a2.812 2.812 0 0 0 2.812-2.813V5.563a2.812 2.812 0 0 0-2.813-2.812Zm.937 21.563a.938.938 0 0 1-.938.937H3.688a.938.938 0 0 1-.937-.938V11.188h22.5v13.126Zm0-15H2.75v-3.75a.937.937 0 0 1 .938-.938h.937v.938a.937.937 0 1 0 1.875 0v-.938h3.75v.938a.938.938 0 0 0 1.875 0v-.938h3.75v.938a.938.938 0 0 0 1.875 0v-.938h3.75v.938a.938.938 0 0 0 1.875 0v-.938h.938a.937.937 0 0 1 .937.938v3.75Z"/><path fill="#fff" d="M13.063 16.813h1.874a.938.938 0 0 0 0-1.875h-1.874a.938.938 0 0 0 0 1.874ZM6.5 16.813h1.875a.938.938 0 0 0 0-1.875H6.5a.938.938 0 0 0 0 1.874ZM19.625 16.813H21.5a.938.938 0 0 0 0-1.875h-1.875a.938.938 0 0 0 0 1.874ZM13.063 21.5h1.874a.938.938 0 0 0 0-1.875h-1.874a.938.938 0 0 0 0 1.875ZM6.5 21.5h1.875a.938.938 0 0 0 0-1.875H6.5a.938.938 0 0 0 0 1.875Z"/></svg>