<svg xmlns="http://www.w3.org/2000/svg" width="29" height="28" fill="none"><path fill="#fff" fill-rule="evenodd" d="M21.793 1.553H7.377v1.442h14.416V1.553Zm4.324 1.442c.796 0 1.442.645 1.442 1.441v20.181c0 .796-.646 1.442-1.442 1.442H3.053a1.442 1.442 0 0 1-1.442-1.442V4.437c0-.797.646-1.442 1.442-1.442V1.553A2.883 2.883 0 0 0 .17 4.436v20.181A2.883 2.883 0 0 0 3.053 27.5h23.064A2.883 2.883 0 0 0 29 24.617V4.437a2.883 2.883 0 0 0-2.883-2.884v1.442Z" clip-rule="evenodd"/><path fill="#fff" d="M23.234.832a.72.72 0 1 1 1.442 0v2.883a.72.72 0 0 1-1.442 0V.832ZM4.495.832a.72.72 0 1 1 1.442 0v2.883a.72.72 0 0 1-1.442 0V.832Z"/><path fill="#fff" fill-rule="evenodd" d="M27.56 8.76H1.611V7.32H27.56v1.44ZM7.38 13.085H4.495v1.442H7.38v-1.442Zm-2.884-1.441c-.796 0-1.441.645-1.441 1.441v1.442c0 .796.645 1.441 1.441 1.441H7.38c.796 0 1.442-.645 1.442-1.441v-1.442c0-.796-.646-1.441-1.442-1.441H4.496ZM16.028 13.085h-2.883v1.442h2.883v-1.442Zm-2.883-1.441c-.796 0-1.442.645-1.442 1.441v1.442c0 .796.646 1.441 1.442 1.441h2.883c.796 0 1.441-.645 1.441-1.441v-1.442c0-.796-.645-1.441-1.441-1.441h-2.883ZM24.677 13.085h-2.883v1.442h2.883v-1.442Zm-2.883-1.441c-.796 0-1.442.645-1.442 1.441v1.442c0 .796.646 1.441 1.442 1.441h2.883c.796 0 1.442-.645 1.442-1.441v-1.442c0-.796-.646-1.441-1.442-1.441h-2.883ZM7.38 20.293H4.495v1.441H7.38v-1.441ZM4.495 18.85c-.796 0-1.441.646-1.441 1.442v1.441c0 .796.645 1.442 1.441 1.442H7.38c.796 0 1.442-.645 1.442-1.442v-1.441c0-.796-.646-1.442-1.442-1.442H4.496ZM16.028 20.293h-2.883v1.441h2.883v-1.441Zm-2.883-1.442c-.796 0-1.442.646-1.442 1.442v1.441c0 .796.646 1.442 1.442 1.442h2.883c.796 0 1.441-.645 1.441-1.442v-1.441c0-.796-.645-1.442-1.441-1.442h-2.883ZM24.677 20.293h-2.883v1.441h2.883v-1.441Zm-2.883-1.442c-.796 0-1.442.646-1.442 1.442v1.441c0 .796.646 1.442 1.442 1.442h2.883c.796 0 1.442-.645 1.442-1.442v-1.441c0-.796-.646-1.442-1.442-1.442h-2.883Z" clip-rule="evenodd"/></svg>