<svg xmlns="http://www.w3.org/2000/svg" width="32" height="33" fill="none"><rect width="32" height="32" y=".5" fill="#027400" rx="16"/><path fill="#fff" d="M10.061 22.643a3.646 3.646 0 0 1-.206-.356c-.457-.904-.655-1.927-.715-2.95-.162-2.736.735-5.544 2.557-7.632 1.147-1.315 2.753-2.175 4.43-2.82 1.707-.658 3.503-1.12 5.311-1.302.415-.042.83-.066 1.248-.066.808.003 1.647.075 2.328.474.181.107.347.24.485.398.434.501.588 1.186.655 1.832.128 1.22-.027 2.46-.263 3.676-.326 1.689-.843 3.347-1.574 4.891-.492 1.04-1.089 2.044-1.909 2.843-2.175 2.12-5.332 3.2-8.403 2.906-.967-.093-1.933-.307-2.787-.795a2.83 2.83 0 0 1-.158-.097l-2.772 2.772a.84.84 0 0 1-.39.199c-.39.062-.796-.255-.817-.662a.712.712 0 0 1 .113-.422c.027-.042.062-.077.093-.115l2.774-2.774Zm2.035-.033c.286.142.602.243.914.324 1.165.3 2.397.298 3.582.096 1.802-.307 3.529-1.146 4.829-2.413.665-.648 1.147-1.465 1.556-2.31.825-1.698 1.368-3.538 1.65-5.399.146-.974.259-1.972.058-2.945-.065-.315-.145-.646-.482-.8-.264-.12-.557-.168-.85-.198a6.796 6.796 0 0 0-.714-.033c-1.468.007-2.936.308-4.361.722-1.428.414-2.833.948-4.083 1.747-1.384.885-2.406 2.301-3.01 3.857-.586 1.51-.797 3.173-.551 4.763.084.548.218 1.103.461 1.588l2.059-2.059-.051-4.349c0-.032 0-.04.002-.072a.727.727 0 0 1 .626-.64c.069-.007.085-.004.107-.003.032.002.04.002.071.006a.724.724 0 0 1 .604.621c.004.032.004.04.005.072l.035 2.966 1.734-1.734v-4.3c.001-.032 0-.04.004-.072.032-.319.305-.599.632-.632.07-.007.086-.003.108-.003.031.003.04.003.071.008a.726.726 0 0 1 .597.628c.003.031.003.04.004.071v2.884l4.1-4.1a.844.844 0 0 1 .389-.198.95.95 0 0 1 .294.015c.122.047.159.05.262.134a.726.726 0 0 1 .215.803c-.047.124-.078.146-.16.247l-2.333 2.334 2.542.004c.393.01.733.366.704.76a.731.731 0 0 1-.707.655l-3.952-.007-1.544 1.545a.689.689 0 0 1-.06.059l-.165.165h3.245l.037.001c.363.029.671.345.671.707 0 .368-.322.697-.707.708h-4.661l-3.777 3.777Z"/></svg>