<svg xmlns="http://www.w3.org/2000/svg" width="32" height="33" fill="none"><rect width="32" height="32" y=".5" fill="#81BAE3" rx="16"/><path fill="#81BAE3" stroke="#fff" stroke-width="1.2" d="m23.724 10.746-.419.429c-.71-.694-1.72-1.075-3.107-1.075-.344 0-.704.06-1.08.185-.384.128-.739.3-1.065.515-.36.237-.665.455-.915.655s-.489.414-.714.639l-.424.424-.424-.424a8.676 8.676 0 0 0-.714-.639l8.862-.71Zm0 0-.419.429c.708.691 1.095 1.673 1.095 3.026 0 1.258-.65 2.62-2.12 4.092l-6.254 6.023-.008.007a.102.102 0 0 1-.005.005.1.1 0 0 1-.02 0h-.006l-.005-.005-.007-.007-6.268-6.047-.02-.02-.022-.017a2.812 2.812 0 0 1-.22-.21 9.983 9.983 0 0 1-.52-.615 8.282 8.282 0 0 1-.637-.913 5.486 5.486 0 0 1-.482-1.095A3.802 3.802 0 0 1 7.6 14.2c0-1.353.386-2.335 1.095-3.026m15.03-.43-15.03.43m5.253-.375a4.544 4.544 0 0 0-1.066-.515l1.066.515Zm0 0c.36.237.664.455.914.655l-.914-.655Zm-5.253.375c.71-.694 1.72-1.075 3.106-1.075.345 0 .704.06 1.081.185l-4.187.89Z"/></svg>