<svg xmlns="http://www.w3.org/2000/svg" width="32" height="33" fill="none"><rect width="32" height="32" y=".5" fill="#D7560D" rx="16"/><path fill="#fff" d="M16 12.809a3.696 3.696 0 0 0-3.691 3.691A3.696 3.696 0 0 0 16 20.191a3.696 3.696 0 0 0 3.691-3.691A3.696 3.696 0 0 0 16 12.809Zm0 6.328a2.64 2.64 0 0 1-2.637-2.637A2.64 2.64 0 0 1 16 13.863a2.64 2.64 0 0 1 2.637 2.637A2.64 2.64 0 0 1 16 19.137Z"/><path fill="#fff" d="M24.473 8.555A3.663 3.663 0 0 0 21 11.065a7.383 7.383 0 0 0-8.797-.898V9.104a.527.527 0 0 0-1.055 0v3.705h-1.02V9.104a.527.527 0 0 0-1.054 0v3.705h-1.02V9.104a.527.527 0 0 0-1.054 0v4.232c0 .934.495 1.755 1.237 2.214l-.336 7.138a1.677 1.677 0 1 0 3.352-.018l-.031-.54c3.324 2.827 8.378 2.159 10.86-1.441l-.16 2.061a1.542 1.542 0 1 0 3.078.119V9.082a.527.527 0 0 0-.527-.527ZM8.147 13.863h2.909c-.494 1.357-2.416 1.356-2.909 0Zm1.43 9.528a.623.623 0 0 1-.622-.653l.321-6.822c.206.026.366.026.53.013l.394 6.802a.623.623 0 0 1-.623.66Zm1.553-2.848-.285-4.922a2.604 2.604 0 0 0 1.358-2.285v-1.9a6.327 6.327 0 0 1 8.613.957v5.127c0 .29.236.527.528.527h.796c-1.255 5.029-7.711 6.466-11.01 2.496Zm12.815 2.326a.487.487 0 1 1-.971-.038l.407-5.27a.527.527 0 0 0-.526-.569h-.984v-4.781c0-1.254.892-2.303 2.074-2.548V22.87Z"/></svg>