<svg xmlns="http://www.w3.org/2000/svg" width="25" height="22" fill="none"><path fill="#fff" d="M22.594 6.484h-1.996L14.69.576A1.583 1.583 0 0 0 13.563.11a1.58 1.58 0 0 0-1.067.412 1.591 1.591 0 0 0-2.186.055L4.402 6.484H2.406c-.879 0-1.594.715-1.594 1.594v1.063c0 .879.715 1.593 1.594 1.593h.07l1.268 8.876a2.67 2.67 0 0 0 2.63 2.28h12.252c1.313 0 2.443-.98 2.629-2.28l1.268-8.876h.07c.88 0 1.595-.714 1.595-1.593V8.078c0-.879-.715-1.594-1.594-1.594Zm-9.407-5.156c.2-.201.55-.201.751 0l5.157 5.156h-1.503l-4.405-4.406a.527.527 0 0 1 0-.75ZM12.5 2.894l3.59 3.59H8.91l3.59-3.59Zm-1.438-1.566a.532.532 0 0 1 .751.75L7.408 6.485H5.905l5.157-5.156Zm9.142 18.132a1.602 1.602 0 0 1-1.578 1.368H6.374a1.602 1.602 0 0 1-1.578-1.368L3.55 10.734h17.9l-1.246 8.726Zm2.921-10.32a.532.532 0 0 1-.531.532H2.406a.532.532 0 0 1-.531-.531V8.078c0-.293.238-.531.531-.531h20.188c.293 0 .531.238.531.531v1.063ZM11.969 19.235h1.062c.586 0 1.063-.476 1.063-1.062V13.39c0-.586-.477-1.063-1.063-1.063H11.97c-.586 0-1.063.477-1.063 1.063v4.78c0 .587.477 1.063 1.063 1.063Zm0-5.843h1.062l.001 4.78h-1.063v-4.78Zm-4.781 5.843H8.25c.586 0 1.063-.476 1.063-1.062V13.39c0-.586-.477-1.063-1.063-1.063H7.187c-.585 0-1.062.477-1.062 1.063v4.78c0 .587.477 1.063 1.063 1.063Zm0-5.843H8.25v4.78H7.188v-4.78Zm9.562 5.843h1.063c.585 0 1.062-.476 1.062-1.062V13.39c0-.586-.477-1.063-1.063-1.063H16.75c-.586 0-1.063.477-1.063 1.063v4.78c0 .587.477 1.063 1.063 1.063Zm0-5.843h1.063v4.78H16.75v-4.78Z"/></svg>