<svg xmlns="http://www.w3.org/2000/svg" width="32" height="33" fill="none"><rect width="32" height="32" y=".5" fill="#27AE7E" rx="16"/><g clip-path="url(#a)"><path fill="#fff" d="M23.03 14.813h-.819a5.979 5.979 0 0 0-1.039-2.122c-1.552-2.001-3.648-1.428-4.9-1.086-.219.06-.42.112-.603.15-.313-.807-.718-2.738 1.721-4.147a.594.594 0 0 0-.593-1.028c-.975.563-1.606 1.222-1.999 1.904a3.758 3.758 0 0 0-.392-.558c-.794-.918-1.948-1.425-3.25-1.425a.594.594 0 0 0-.594.593c0 1.303.506 2.456 1.425 3.25.677.586 1.502.902 2.323.905.02.125.044.246.072.365a.218.218 0 0 0-.03-.009c-1.253-.341-3.348-.916-4.901 1.087-1.554 2.011-1.653 4.652-.35 6.87H7.595a.594.594 0 0 0-.594.594v4.75c0 .328.266.594.594.594H23.03a2.972 2.972 0 0 0 2.968-2.969v-4.75a2.972 2.972 0 0 0-2.968-2.968ZM12.765 9.445a2.925 2.925 0 0 1-.955-1.698 2.92 2.92 0 0 1 1.698.956c.345.396.555.875.606 1.347a2.484 2.484 0 0 1-1.349-.605ZM10.39 13.42c1.065-1.378 2.437-1.001 3.648-.669.384.106.71.157 1.03.177a.585.585 0 0 0 .243.064.595.595 0 0 0 .25-.065 5.087 5.087 0 0 0 1.025-.177c1.213-.331 2.584-.708 3.648.667 1.696 2.195 1.017 4.627-.136 6.145h-9.57c-1.154-1.516-1.833-3.949-.138-6.142Zm14.422 9.112c0 .982-.8 1.782-1.781 1.782h-.594v-.594a.594.594 0 0 0-1.187 0v.593h-1.188v-1.78a.594.594 0 0 0-1.187 0v1.78h-1.188v-.593a.594.594 0 0 0-1.187 0v.593h-1.188v-.593a.594.594 0 0 0-1.187 0v.593h-1.188v-1.78a.594.594 0 0 0-1.187 0v1.78h-1.188v-.593a.594.594 0 0 0-1.187 0v.593H8.187V20.75H23.031c.67 0 1.283-.231 1.781-.609v2.39Zm-1.781-2.968h-1.508A6.3 6.3 0 0 0 22.398 16h.633c.982 0 1.781.8 1.781 1.782s-.8 1.78-1.781 1.78Z"/></g><defs><clipPath id="a"><path fill="#fff" d="M7 6.5h19v19H7z"/></clipPath></defs></svg>