<svg xmlns="http://www.w3.org/2000/svg" width="32" height="33" fill="none"><rect width="32" height="32" y=".5" fill="#4533B2" rx="16"/><g fill="#fff" clip-path="url(#a)"><path d="M22.766 12.655a2.112 2.112 0 0 0-1.76-3.27c-.43 0-.828.13-1.16.35A7.75 7.75 0 0 0 16 8.718c-4.29 0-7.781 3.49-7.781 7.781 0 1.358.35 2.677 1.015 3.845a2.112 2.112 0 0 0 1.76 3.27c.43 0 .828-.13 1.16-.35A7.749 7.749 0 0 0 16 24.282c4.29 0 7.781-3.49 7.781-7.781 0-1.358-.35-2.677-1.015-3.845ZM16 22.875a6.35 6.35 0 0 1-2.99-.744 2.112 2.112 0 0 0-2.64-2.64 6.348 6.348 0 0 1-.745-2.991A6.382 6.382 0 0 1 16 10.125a6.35 6.35 0 0 1 2.99.744 2.112 2.112 0 0 0 2.64 2.64c.489.917.745 1.94.745 2.991A6.382 6.382 0 0 1 16 22.875Z"/><path d="M16 20.063a3.563 3.563 0 1 0 0-7.126 3.563 3.563 0 0 0 0 7.126Z"/><path d="M28 16.5c0-3.205-1.248-6.219-3.515-8.485A11.922 11.922 0 0 0 16 4.5c-2.51 0-4.89.757-6.919 2.195A2.112 2.112 0 0 0 6.195 9.58 11.874 11.874 0 0 0 4 16.5c0 3.205 1.248 6.219 3.515 8.485A11.922 11.922 0 0 0 16 28.5c2.51 0 4.89-.757 6.919-2.195.314.186.68.293 1.07.293a2.112 2.112 0 0 0 1.816-3.179A11.875 11.875 0 0 0 28 16.5ZM8.51 23.99c-2.002-2-3.104-4.66-3.104-7.49 0-2.176.645-4.242 1.87-6.011a2.112 2.112 0 0 0 2.713-2.713A10.48 10.48 0 0 1 16 5.906c2.83 0 5.49 1.102 7.49 3.103 2.002 2.001 3.104 4.661 3.104 7.491a10.48 10.48 0 0 1-1.87 6.012 2.112 2.112 0 0 0-2.713 2.713A10.48 10.48 0 0 1 16 27.093c-2.83 0-5.49-1.102-7.49-3.103Z"/></g><defs><clipPath id="a"><path fill="#fff" d="M4 4.5h24v24H4z"/></clipPath></defs></svg>