<svg xmlns="http://www.w3.org/2000/svg" width="32" height="33" fill="none"><rect width="32" height="32" y=".5" fill="#904FB9" rx="16"/><path fill="#fff" d="m16.084 20.947.969 1.912c-.454.484-1.106.88-1.958 1.184a7.715 7.715 0 0 1-2.657.457c-2.198 0-3.99-.686-5.378-2.057C5.687 21.072 5 19.258 5 17c0-2.16.652-3.954 1.957-5.38 1.291-1.414 3.098-2.12 5.419-2.12 1.84 0 3.303.492 4.388 1.475l-1.133 1.89a5.735 5.735 0 0 0-3.255-.976c-1.374 0-2.5.464-3.379 1.392-.88.928-1.319 2.168-1.319 3.719 0 1.523.46 2.756 1.38 3.698.935.942 2.137 1.413 3.606 1.413a5.497 5.497 0 0 0 3.42-1.164ZM19.613 17.332l-.597-1.745a6.3 6.3 0 0 1 3.276-.893c1.29 0 2.231.318 2.822.956.59.637.886 1.613.886 2.929v5.692h-2.06v-1.08c-.55.803-1.463 1.205-2.74 1.205-.88 0-1.587-.256-2.123-.769-.522-.526-.783-1.225-.783-2.098 0-.97.31-1.717.928-2.244.618-.526 1.435-.79 2.451-.79.838 0 1.539.202 2.102.603.027-.83-.096-1.44-.371-1.828-.26-.388-.714-.582-1.36-.582-.714 0-1.524.215-2.43.644Zm2.37 5.049c.796 0 1.394-.284 1.792-.852v-.956c-.385-.304-.927-.457-1.628-.457-.44 0-.796.104-1.071.312a1.01 1.01 0 0 0-.412.852c0 .332.123.602.37.81.248.194.564.29.948.29Z"/></svg>