<svg xmlns="http://www.w3.org/2000/svg" width="30" height="30" fill="none"><path fill="#151716" d="M14.6 26.61c-.381-.474-9.342-11.683-9.342-16.889C5.258 4.361 9.628 0 15 0a9.7 9.7 0 0 1 3.78.76.513.513 0 1 1-.397.945A8.68 8.68 0 0 0 15 1.025c-4.806 0-8.717 3.901-8.717 8.696 0 4.256 6.958 13.475 8.717 15.738 1.76-2.263 8.717-11.482 8.717-15.738a8.638 8.638 0 0 0-2.464-6.058.513.513 0 0 1 .735-.716 9.659 9.659 0 0 1 2.754 6.774c0 5.206-8.985 16.396-9.342 16.89-.143.197-.496.376-.8 0Z"/><path fill="#79C500" d="M15 13.807a4.095 4.095 0 0 1-4.094-4.086 4.095 4.095 0 0 1 8.189 0 4.095 4.095 0 0 1-4.094 4.086Zm0-7.147a3.068 3.068 0 0 0-3.068 3.06A3.068 3.068 0 0 0 15 12.782a3.068 3.068 0 0 0 3.068-3.06 3.068 3.068 0 0 0-3.068-3.06Z"/><path fill="#151716" d="M15 30c-3.531 0-6.86-.641-9.371-1.806-2.637-1.223-4.09-2.895-4.09-4.71 0-1.55 1.043-2.986 3.016-4.149a.513.513 0 1 1 .52.884c-1.619.954-2.51 2.114-2.51 3.265 0 2.976 5.695 5.49 12.436 5.49 6.74 0 12.435-2.514 12.435-5.49 0-1.488-1.457-2.945-3.998-4a.513.513 0 1 1 .393-.947c2.041.847 4.631 2.436 4.631 4.947 0 1.815-1.452 3.487-4.09 4.71C21.861 29.359 18.532 30 15.001 30Z"/><path fill="#79C500" d="M6.582 19.188a.641.641 0 1 0 0-1.282.641.641 0 0 0 0 1.282Z"/></svg>