<svg xmlns="http://www.w3.org/2000/svg" width="30" height="30" fill="none"><g clip-path="url(#a)"><path fill="#151716" d="M15.002 7.146a.44.44 0 0 0 .44-.44v-.644a.44.44 0 0 0-.88 0v.645c0 .242.197.439.44.439ZM21.605 8.379a.44.44 0 0 0-.622 0l-.456.456a.44.44 0 1 0 .622.621L21.605 9a.44.44 0 0 0 0-.621ZM23.244 14.56a.44.44 0 0 0 0 .88h.645a.44.44 0 1 0 0-.88h-.645ZM21.117 20.53a.44.44 0 0 0-.621.621l.456.456a.439.439 0 1 0 .621-.621l-.456-.456ZM14.512 23.246v.645a.44.44 0 1 0 .879 0v-.645a.44.44 0 1 0-.88 0ZM8.804 20.496l-.457.456a.44.44 0 0 0 .622.622l.456-.456a.44.44 0 0 0-.621-.622ZM6.06 14.513a.44.44 0 0 0 0 .879h.646a.44.44 0 1 0 0-.88H6.06ZM9.456 8.8 9 8.346a.44.44 0 0 0-.621.621l.456.456a.438.438 0 0 0 .621 0 .44.44 0 0 0 0-.621Z"/><path fill="#79C500" d="m16.177 16.1 3.13 1.61a.44.44 0 1 0 .402-.782l-3.129-1.61a1.615 1.615 0 0 0-1.141-1.87V8.971a.44.44 0 0 0-.879 0v4.479c-.536.152-.959.575-1.111 1.112h-2.181a.44.44 0 1 0 0 .879h2.18A1.615 1.615 0 0 0 15 16.611c.464 0 .883-.197 1.177-.512ZM15 15.734a.734.734 0 1 1 .001-1.47.734.734 0 0 1-.001 1.47Z"/><path fill="#79C500" d="M26.347 14.56a.44.44 0 0 0 .404-.472 11.742 11.742 0 0 0-3.724-7.718 11.745 11.745 0 0 0-8.026-3.156C8.5 3.214 3.215 8.501 3.215 15S8.502 26.786 15 26.786c6.146 0 11.28-4.735 11.75-10.874a.44.44 0 1 0-.876-.067c-.434 5.668-5.175 10.062-10.874 10.062-6.014 0-10.907-4.893-10.907-10.907S8.986 4.093 15 4.093a10.87 10.87 0 0 1 7.427 2.92 10.865 10.865 0 0 1 3.447 7.142.439.439 0 0 0 .472.405Z"/><path fill="#151716" d="M25.61 4.393A14.902 14.902 0 0 0 15.002 0c-2.88 0-5.677.818-8.09 2.366a.44.44 0 0 0 .475.74A14.072 14.072 0 0 1 15.003.879c3.771 0 7.318 1.469 9.985 4.136A14.029 14.029 0 0 1 29.124 15c0 7.804-6.316 14.121-14.121 14.121-1.395 0-2.774-.204-4.1-.605a.44.44 0 1 0-.255.841c1.408.427 2.874.643 4.355.643 8.29 0 15-6.709 15-15 0-4.007-1.56-7.773-4.394-10.607ZM9.302 27.924A14.136 14.136 0 0 1 .88 15c0-4.225 1.87-8.194 5.13-10.889a.44.44 0 1 0-.56-.677A14.962 14.962 0 0 0 0 15c0 5.94 3.512 11.328 8.947 13.728a.438.438 0 0 0 .58-.225.44.44 0 0 0-.225-.58Z"/></g><defs><clipPath id="a"><path fill="#fff" d="M0 0h30v30H0z"/></clipPath></defs></svg>