<svg xmlns="http://www.w3.org/2000/svg" width="30" height="30" fill="none"><g clip-path="url(#a)"><path fill="#151716" d="M26.51 9.218a.44.44 0 0 0-.44.439v11.65c0 .109-.02.214-.054.312l-9.523-7.838 6.562-4.615a.44.44 0 1 0-.505-.718l-7.851 5.52a2.134 2.134 0 0 1-2.449 0L.903 5.99a.944.944 0 0 1 .919-.732h3.344a.44.44 0 1 0 0-.879H1.822c-1 0-1.815.81-1.822 1.81v15.118c0 1.005.817 1.822 1.822 1.822H19.36a.44.44 0 1 0 0-.878H1.822a.94.94 0 0 1-.235-.031l9.615-7.914.543.382a3.006 3.006 0 0 0 1.73.546c.606 0 1.212-.182 1.73-.546l.543-.382 9.614 7.914a.936.936 0 0 1-.235.03h-3.895a.44.44 0 0 0 0 .88h3.895a1.824 1.824 0 0 0 1.822-1.823V9.657a.44.44 0 0 0-.44-.44ZM.933 21.618a.937.937 0 0 1-.054-.312V7.046l9.577 6.735-9.523 7.838Z"/><path fill="#79C500" d="M7.04 5.257h13.297a.44.44 0 1 0 0-.879H7.04a.44.44 0 1 0 0 .879ZM29.657 2.528a.44.44 0 1 0-.807.349 3.317 3.317 0 0 1-3.041 4.628 3.317 3.317 0 0 1-3.313-3.313A3.317 3.317 0 0 1 25.809.879c.732 0 1.426.234 2.008.678a.44.44 0 0 0 .533-.699A4.153 4.153 0 0 0 25.809 0a4.197 4.197 0 0 0-4.192 4.192 4.197 4.197 0 0 0 4.192 4.192 4.197 4.197 0 0 0 3.848-5.856Z"/></g><defs><clipPath id="a"><path fill="#fff" d="M0 0h30v30H0z"/></clipPath></defs></svg>