<svg xmlns="http://www.w3.org/2000/svg" width="30" height="30" fill="none"><g clip-path="url(#a)"><path fill="#151716" d="M20.633 17.02a1.555 1.555 0 0 0-2.2 0l-.005.005c-.508.524-1.295 1.333-1.599 1.638-1.902-.087-3.488-1.622-3.536-3.45.188-.257.886-.914 1.197-1.207.316-.296.432-.408.495-.484a1.558 1.558 0 0 0-.023-2.177L12.268 8.65a1.545 1.545 0 0 0-1.1-.456 1.545 1.545 0 0 0-1.084.442c-1.443 1.235-2.03 2.978-1.697 5.042.285 1.76 1.238 3.693 2.684 5.44 1.376 1.663 3.068 2.98 4.64 3.617a.47.47 0 1 0 .352-.871c-3.079-1.245-6.232-5.14-6.748-8.336-.284-1.753.184-3.162 1.39-4.188l.028-.025a.613.613 0 0 1 .871 0l2.694 2.694a.617.617 0 0 1 0 .872l-.033.033-.014.02c-.053.059-.24.233-.404.388-.288.27-.646.608-.93.903-.309.32-.627.65-.563.992.05 2.39 2.16 4.389 4.643 4.389h.016c.205 0 .26-.056.619-.419a305.396 305.396 0 0 0 1.468-1.506.615.615 0 0 1 .868.002l2.2 2.202c.281.294.412.62.387.97-.032.454-.323.93-.799 1.303l-.018.015c-.83.721-2.296.534-3.475.384l-.032-.005a.47.47 0 0 0-.119.932l.032.004c.557.071 1.168.15 1.775.15.235 0 .469-.014.701-.042v3.685a1.782 1.782 0 0 1-1.779 1.78H7.7a1.781 1.781 0 0 1-1.78-1.78V2.718A1.781 1.781 0 0 1 7.7.94H18.84a1.781 1.781 0 0 1 1.78 1.78v3.18a.47.47 0 1 0 .939 0v-3.18A2.722 2.722 0 0 0 18.84 0H7.7A2.721 2.721 0 0 0 4.98 2.718v24.564A2.721 2.721 0 0 0 7.7 30H18.84a2.721 2.721 0 0 0 2.719-2.718v-3.919c.286-.113.551-.273.785-.473.679-.537 1.097-1.254 1.147-1.97.043-.617-.18-1.2-.648-1.688l-2.211-2.213Z"/><path fill="#79C500" d="M16.872 10.82c1.986.491 3.8 2.285 4.316 4.266a.469.469 0 1 0 .909-.236c-.29-1.119-.95-2.228-1.856-3.123-.906-.896-2.022-1.541-3.143-1.818a.47.47 0 1 0-.226.911ZM25.011 14.738c-.562-3.79-3.968-7.21-7.755-7.786a.47.47 0 1 0-.14.929c3.344.508 6.47 3.646 6.966 6.995a.471.471 0 0 0 .844.213.47.47 0 0 0 .085-.351ZM13.975 28.025a.47.47 0 0 0 0-.94h-1.402a.47.47 0 1 0 0 .94h1.402ZM16.16 2.228h-5.775a.47.47 0 1 0 0 .94h5.775a.47.47 0 0 0 0-.94Z"/></g><defs><clipPath id="a"><path fill="#fff" d="M0 0h30v30H0z"/></clipPath></defs></svg>