<svg xmlns="http://www.w3.org/2000/svg" width="70" height="70" fill="none"><path fill="#151716" d="M18.592 0a3.27 3.27 0 0 0-3.277 3.277v1.1H9.84a5.444 5.444 0 0 0-5.465 5.464v54.693A5.462 5.462 0 0 0 9.84 70h50.318a5.466 5.466 0 0 0 5.467-5.466V9.84a5.46 5.46 0 0 0-5.467-5.464h-5.473v-1.1A3.274 3.274 0 0 0 51.405 0a3.272 3.272 0 0 0-3.276 3.277v1.1H21.87v-1.1A3.27 3.27 0 0 0 18.592 0Zm0 2.187c.595 0 1.09.465 1.09 1.09v4.377c0 .625-.507 1.098-1.09 1.098a1.101 1.101 0 0 1-1.098-1.098V3.277c0-.625.503-1.09 1.098-1.09Zm32.814 0c.595 0 1.09.465 1.09 1.09v4.377c0 .625-.491 1.098-1.09 1.098a1.09 1.09 0 0 1-1.098-1.098V3.277c0-.625.503-1.09 1.098-1.09ZM9.84 6.564h5.475v1.09a3.27 3.27 0 0 0 3.277 3.285 3.272 3.272 0 0 0 3.28-3.285v-1.09h26.257v1.09a3.285 3.285 0 0 0 3.277 3.285c1.82 0 3.279-1.486 3.279-3.285v-1.09h5.473a3.26 3.26 0 0 1 3.28 3.277v5.475H6.562V9.841A3.26 3.26 0 0 1 9.84 6.564ZM6.563 17.495h56.874v30.633h-7.654a5.442 5.442 0 0 0-5.475 5.466v7.652H9.84a3.27 3.27 0 0 1-3.277-3.277V17.495Zm49.22 32.812h6.112l-9.4 9.399v-6.112a3.28 3.28 0 0 1 3.288-3.287Zm7.654 1.55v12.677a3.277 3.277 0 0 1-3.279 3.276H9.84a3.273 3.273 0 0 1-3.277-3.276v-2.22a5.41 5.41 0 0 0 3.277 1.121h41.566c.29 0 .57-.116.775-.322l11.256-11.255Z"/><path fill="#79C500" d="M27.345 9.841c-1.492 0-1.492 2.188 0 2.188h15.308c1.492 0 1.492-2.188 0-2.188H27.345ZM13.127 21.872c-1.218 0-2.19.995-2.19 2.188v4.375c0 1.227.998 2.19 2.19 2.19h4.367a2.187 2.187 0 0 0 2.188-2.19V24.06a2.19 2.19 0 0 0-2.188-2.188h-4.367Zm13.12 0a2.19 2.19 0 0 0-2.188 2.188v4.375c0 1.218.994 2.19 2.188 2.19h4.377a2.181 2.181 0 0 0 2.187-2.19V24.06a2.188 2.188 0 0 0-2.187-2.188h-4.377Zm13.13 0a2.188 2.188 0 0 0-2.188 2.188v4.375c0 1.235.994 2.19 2.187 2.19h4.375c1.227 0 2.19-.998 2.19-2.19V24.06a2.195 2.195 0 0 0-2.19-2.188h-4.375Zm13.118 0a2.19 2.19 0 0 0-2.187 2.188v4.375c0 1.192.969 2.19 2.187 2.19h4.378a2.184 2.184 0 0 0 2.187-2.19V24.06a2.188 2.188 0 0 0-2.187-2.188h-4.378ZM13.127 24.06h4.367v4.375h-4.367V24.06Zm13.12 0h4.377v4.375h-4.377V24.06Zm13.13 0h4.374v4.375h-4.375V24.06Zm13.118 0h4.378v4.375h-4.378V24.06ZM13.127 34.999a2.18 2.18 0 0 0-2.19 2.19v4.374a2.19 2.19 0 0 0 2.19 2.188h4.367a2.18 2.18 0 0 0 2.188-2.188v-4.375c0-1.192-.956-2.19-2.188-2.19h-4.367Zm13.12 0a2.192 2.192 0 0 0-2.188 2.19v4.374a2.19 2.19 0 0 0 2.188 2.188h4.377a2.188 2.188 0 0 0 2.187-2.188v-4.375c0-1.192-.96-2.19-2.187-2.19h-4.377Zm13.13 0a2.181 2.181 0 0 0-2.188 2.19v4.374c0 1.215.994 2.188 2.187 2.188h4.375c1.193 0 2.19-.97 2.19-2.188v-4.375c0-1.192-.966-2.19-2.19-2.19h-4.375Zm13.118 0a2.19 2.19 0 0 0-2.187 2.19v4.374c0 1.202.994 2.188 2.187 2.188h4.378a2.193 2.193 0 0 0 2.187-2.188v-4.375c0-1.192-.96-2.19-2.187-2.19h-4.378Zm-39.368 2.19h4.367v4.374h-4.367v-4.375Zm13.12 0h4.377v4.374h-4.377v-4.375Zm13.13 0h4.374v4.374h-4.375v-4.375Zm13.118 0h4.378v4.374h-4.378v-4.375ZM13.127 48.127c-1.193 0-2.19.986-2.19 2.179v4.377c0 1.235.998 2.187 2.19 2.187h4.367a2.188 2.188 0 0 0 2.188-2.187v-4.377c0-1.193-.995-2.18-2.188-2.18h-4.367Zm13.12 0a2.183 2.183 0 0 0-2.188 2.179v4.377c0 1.214.994 2.187 2.188 2.187h4.377a2.185 2.185 0 0 0 2.187-2.187v-4.377a2.18 2.18 0 0 0-2.187-2.18h-4.377Zm13.13 0a2.18 2.18 0 0 0-2.188 2.179v4.377c0 1.193.94 2.187 2.187 2.187h4.375a2.19 2.19 0 0 0 2.19-2.187v-4.377a2.188 2.188 0 0 0-2.19-2.18h-4.375Zm-26.25 2.179h4.367v4.377h-4.367v-4.377Zm13.12 0h4.377v4.377h-4.377v-4.377Zm13.13 0h4.374v4.377h-4.375v-4.377Z"/></svg>