<svg xmlns="http://www.w3.org/2000/svg" width="38" height="30" fill="none"><g clip-path="url(#a)"><path fill="#292F33" d="M13.714 28.518C.176 26.573.404 13.315.404 9.304H38c0 2.065.097 17.007-14.513 19.324-2.258.358-7.142.268-9.774-.11Z"/><path fill="#66757F" d="M36.219 5.257C38.947-.754 27.006-.409 24.016.531a42.678 42.678 0 0 0-4.814-.274C8.82.257.403 3.74.403 9.364c0 1.088.322 2.134.905 3.117-4.785 6.16 4.695 7.319 10.156 6.158 2.362.58 4.976.91 7.738.91 10.383 0 18.8-4.56 18.8-10.184 0-1.542-.652-2.916-1.783-4.108Z"/><path fill="#FFCC4D" d="M19.203 17.932c9.16 0 16.587-3.38 16.587-7.549 0-4.17-7.427-7.549-16.587-7.549-9.161 0-16.588 3.38-16.588 7.549 0 4.17 7.427 7.549 16.588 7.549Z"/><path fill="#77B255" d="M3.721 8.226c-.6-2.34 2.212-6.47 7.74-5.392 1.107-1.079 3.14-2.157 6.636-2.157 2.211 0 6.206 1.914 4.423 5.392-1.106 2.157-5.53 5.392-11.058 3.235-1.106 1.079-6.635 3.236-7.74-1.078Z"/><path fill="#5C913B" d="M12.568 9.305c-.276.038-.521.078-.75.12 5.36 1.882 9.62-1.246 10.702-3.356 1.192-2.325-.2-3.947-1.914-4.77.436 1.965-1.248 7.06-8.038 8.006Z"/><path fill="#D99E82" d="M4.827 8.226c.58-1.416 5.529-3.235 11.058 3.235 1.106 1.079 5.071 1.71 6.635 3.236 1.106 1.078 0 2.157-4.423 2.157-4.424 0-15.482-3.236-13.27-8.628Z"/><path fill="#B27962" d="M5.978 12.56c2.817 2.742 9.056 4.293 12.118 4.293 4.424 0 5.53-1.078 4.424-2.157-.36-.351-.852-.654-1.403-.927-3.543 1.869-12.916-.155-15.14-1.21Z"/><path fill="#FFE8B6" d="M29.155 12.248c-.231 0-.468-.037-.7-.113l-3.318-1.078a2.196 2.196 0 0 1-1.278-1.082 2.108 2.108 0 0 1-.12-1.647 2.174 2.174 0 0 1 1.109-1.247 2.263 2.263 0 0 1 1.688-.117l3.318 1.079c.5.16.924.49 1.197.929.272.438.376.957.292 1.464-.084.506-.35.967-.752 1.299-.4.332-.91.514-1.436.513Zm-1.106 3.234h-2.212a1.12 1.12 0 0 1-.782-.316 1.066 1.066 0 0 1-.323-.763c0-.286.116-.56.323-.762a1.12 1.12 0 0 1 .782-.316h2.212c.293 0 .575.113.782.316.207.202.324.476.324.762 0 .286-.117.56-.324.763a1.12 1.12 0 0 1-.782.316Z"/></g><defs><clipPath id="a"><path fill="#fff" d="M0 0h38v30H0z"/></clipPath></defs></svg>