<svg xmlns="http://www.w3.org/2000/svg" width="18" height="18" fill="none"><path fill="#CBD3D9" d="M17.438 15.188H9.563A.563.563 0 0 1 9 14.625V3.375c0-.31.252-.562.563-.562h7.874c.311 0 .563.252.563.562v11.25c0 .31-.252.563-.563.563Z"/><path fill="#79C500" d="M11.813 6.188h-2.25a.563.563 0 0 1 0-1.125h2.25a.563.563 0 0 1 0 1.125ZM11.813 8.438h-2.25a.563.563 0 0 1 0-1.125h2.25a.563.563 0 0 1 0 1.125ZM11.813 10.688h-2.25a.563.563 0 0 1 0-1.125h2.25a.563.563 0 0 1 0 1.125ZM11.813 12.938h-2.25a.563.563 0 0 1 0-1.125h2.25a.563.563 0 0 1 0 1.125ZM15.188 6.188h-1.126a.563.563 0 0 1 0-1.125h1.126a.563.563 0 0 1 0 1.125ZM15.188 8.438h-1.126a.563.563 0 0 1 0-1.125h1.126a.563.563 0 0 1 0 1.125ZM15.188 10.688h-1.126a.563.563 0 0 1 0-1.125h1.126a.563.563 0 0 1 0 1.125ZM15.188 12.938h-1.126a.563.563 0 0 1 0-1.125h1.126a.563.563 0 0 1 0 1.125Z"/><path fill="#669B11" d="M9.921.692a.553.553 0 0 0-.462-.12l-9 1.688A.56.56 0 0 0 0 2.813v12.375c0 .27.192.503.459.552l9 1.688a.56.56 0 0 0 .666-.552V1.125a.56.56 0 0 0-.204-.434Z"/><path fill="#FAFAFA" d="M7.735 10.88 5.956 8.847l1.8-2.313a.563.563 0 0 0-.888-.692L5.202 7.984 3.798 6.38a.561.561 0 1 0-.846.74L4.498 8.89 2.93 10.905a.563.563 0 1 0 .889.69l1.434-1.844 1.636 1.868a.558.558 0 0 0 .793.054.561.561 0 0 0 .053-.793Z"/></svg>