<svg xmlns="http://www.w3.org/2000/svg" width="13" height="14" fill="none"><path fill="#79C500" d="M6.058 10.567c.006.006.014.007.02.013a.62.62 0 0 0 .183.122h.002a.625.625 0 0 0 .679-.135l3.125-3.125a.624.624 0 0 0-.884-.884L7.125 8.616V1.375a.625.625 0 0 0-1.25 0v7.241L3.817 6.558a.625.625 0 0 0-.884.884l3.125 3.125Z"/><path fill="#79C500" d="M11.5 9.5v1.875a.626.626 0 0 1-.625.625h-8.75a.626.626 0 0 1-.625-.625V9.5a.625.625 0 0 0-1.25 0v1.875a1.877 1.877 0 0 0 1.875 1.875h8.75a1.877 1.877 0 0 0 1.875-1.875V9.5a.625.625 0 1 0-1.25 0Z"/></svg>