<svg xmlns="http://www.w3.org/2000/svg" width="32" height="32" fill="none"><g clip-path="url(#a)"><path fill="#79C500" d="M25.56 11.195c-.48-2.233-1.224-3.797-1.256-3.862a.586.586 0 0 0-.722-.3c-.055.02-1.367.485-3.02 1.471-1.364.814-3.197 2.136-4.585 3.98a12.92 12.92 0 0 0-1.023-1.2 16.61 16.61 0 0 0-2.962-2.407c-1.919-1.24-3.55-1.82-3.62-1.844a.586.586 0 0 0-.722.3c-.031.065-.776 1.629-1.256 3.862a16.625 16.625 0 0 0-.391 3.797c.029 1.521.307 2.928.826 4.182.52 1.254 1.318 2.446 2.373 3.542.834.867 1.83 1.677 2.962 2.408 1.918 1.24 3.55 1.82 3.62 1.843a.586.586 0 0 0 .387 0c.069-.024 1.701-.603 3.62-1.843 1.13-.73 2.127-1.54 2.961-2.408 1.055-1.096 1.854-2.288 2.373-3.542.52-1.254.797-2.66.827-4.182a16.617 16.617 0 0 0-.392-3.797Zm-17.648 7.53c-1.05-2.536-.786-5.345-.378-7.255.296-1.387.708-2.516.957-3.13 1.33.565 4.96 2.325 6.984 5.472a9.234 9.234 0 0 1 .769 1.462c1.459 3.524.428 7.567-.277 9.584l-5.21-12.576a.586.586 0 1 0-1.082.449l5.21 12.576a19.257 19.257 0 0 1-2.11-1.183c-1.638-1.062-3.812-2.861-4.863-5.398Zm16.13 0c-1.05 2.538-3.225 4.337-4.863 5.399-.782.507-1.521.9-2.109 1.183l5.806-14.018a.586.586 0 1 0-1.082-.448l-3.641 8.79c.044-1.76-.233-3.37-.827-4.805a10.307 10.307 0 0 0-.653-1.303c1.287-1.86 3.121-3.193 4.466-3.999a19.02 19.02 0 0 1 2.325-1.184c.248.613.66 1.742.957 3.13.407 1.91.672 4.719-.379 7.256Z"/></g><rect width="30" height="30" x="1" y="1" stroke="#79C500" stroke-width="2" rx="15"/><defs><clipPath id="a"><path fill="#fff" d="M6 7h20v20H6z"/></clipPath></defs></svg>