<svg xmlns="http://www.w3.org/2000/svg" width="32" height="32" fill="none"><g fill="#79C500" clip-path="url(#a)"><path d="M22.766 12.155a2.112 2.112 0 0 0-1.76-3.27c-.43 0-.828.13-1.16.35A7.75 7.75 0 0 0 16 8.218c-4.29 0-7.781 3.49-7.781 7.781 0 1.358.35 2.677 1.015 3.845a2.112 2.112 0 0 0 1.76 3.27c.43 0 .828-.13 1.16-.35A7.749 7.749 0 0 0 16 23.782c4.29 0 7.781-3.49 7.781-7.781 0-1.358-.35-2.677-1.015-3.845ZM16 22.375a6.35 6.35 0 0 1-2.99-.744 2.112 2.112 0 0 0-2.64-2.64A6.348 6.348 0 0 1 9.624 16 6.382 6.382 0 0 1 16 9.625c1.052 0 2.074.256 2.99.744a2.112 2.112 0 0 0 2.64 2.64c.489.917.745 1.94.745 2.991A6.382 6.382 0 0 1 16 22.375Z"/><path d="M16 19.563a3.563 3.563 0 1 0 0-7.126 3.563 3.563 0 0 0 0 7.126Z"/><path d="M28 16c0-3.205-1.248-6.219-3.515-8.485A11.922 11.922 0 0 0 16 4c-2.51 0-4.89.757-6.919 2.195A2.112 2.112 0 0 0 6.195 9.08 11.874 11.874 0 0 0 4 16c0 3.205 1.248 6.219 3.515 8.485A11.922 11.922 0 0 0 16 28c2.51 0 4.89-.757 6.919-2.195.314.186.68.293 1.07.293a2.112 2.112 0 0 0 1.816-3.179A11.875 11.875 0 0 0 28 16ZM8.51 23.49c-2.002-2-3.104-4.66-3.104-7.49 0-2.176.645-4.242 1.87-6.011a2.112 2.112 0 0 0 2.713-2.713A10.48 10.48 0 0 1 16 5.406c2.83 0 5.49 1.102 7.49 3.103 2.002 2.001 3.104 4.661 3.104 7.491a10.48 10.48 0 0 1-1.87 6.012 2.112 2.112 0 0 0-2.713 2.713A10.48 10.48 0 0 1 16 26.593c-2.83 0-5.49-1.102-7.49-3.103Z"/></g><rect width="30" height="30" x="1" y="1" stroke="#79C500" stroke-width="2" rx="15"/><defs><clipPath id="a"><path fill="#fff" d="M4 4h24v24H4z"/></clipPath></defs></svg>