<svg xmlns="http://www.w3.org/2000/svg" width="32" height="32" fill="none"><g clip-path="url(#a)"><path stroke="#79C500" stroke-width="1.2" d="m22.64 24.955-5.822-3.643-.318-.2-.318.2-5.822 3.643-.002.002h-.005a.018.018 0 0 1-.01-.003.014.014 0 0 1-.005-.015l1.665-6.663.09-.362-.284-.241-5.201-4.41-.003-.003a.015.015 0 0 1-.004-.016.016.016 0 0 1 .013-.01l6.79-.475.373-.026.14-.348 2.557-6.34a.12.12 0 0 1 .052 0l2.556 6.34.14.348.375.026 6.788.474c.007 0 .012.005.014.01v.001a.015.015 0 0 1-.004.016l-.003.003-5.201 4.41-.285.241.09.362 1.666 6.662v.001c.002.006 0 .011-.005.014a.016.016 0 0 1-.005.003h-.001l-.003.001c-.003 0-.006 0-.008-.002Z"/></g><rect width="30" height="30" x="1" y="1" stroke="#79C500" stroke-width="2" rx="15"/><defs><clipPath id="a"><path fill="#fff" d="M6 5h21v21H6z"/></clipPath></defs></svg>