<svg xmlns="http://www.w3.org/2000/svg" width="32" height="32" fill="none"><path fill="#79C500" d="M16 12.309A3.696 3.696 0 0 0 12.309 16 3.696 3.696 0 0 0 16 19.691 3.696 3.696 0 0 0 19.691 16 3.696 3.696 0 0 0 16 12.309Zm0 6.328A2.64 2.64 0 0 1 13.363 16 2.64 2.64 0 0 1 16 13.363 2.64 2.64 0 0 1 18.637 16 2.64 2.64 0 0 1 16 18.637Z"/><path fill="#79C500" d="M24.473 8.055A3.663 3.663 0 0 0 21 10.565a7.383 7.383 0 0 0-8.797-.898V8.604a.527.527 0 0 0-1.055 0v3.705h-1.02V8.604a.527.527 0 0 0-1.054 0v3.705h-1.02V8.604a.527.527 0 0 0-1.054 0v4.232c0 .934.495 1.755 1.237 2.214l-.336 7.138a1.677 1.677 0 1 0 3.352-.018l-.031-.54c3.324 2.827 8.378 2.159 10.86-1.441l-.16 2.061a1.542 1.542 0 1 0 3.078.119V8.582a.527.527 0 0 0-.527-.527ZM8.147 13.363h2.909c-.494 1.357-2.416 1.356-2.909 0Zm1.43 9.528a.623.623 0 0 1-.622-.653l.321-6.822c.206.026.366.026.53.013l.394 6.802a.623.623 0 0 1-.623.66Zm1.553-2.848-.285-4.922a2.604 2.604 0 0 0 1.358-2.285v-1.9a6.327 6.327 0 0 1 8.613.957v5.127c0 .29.236.527.528.527h.796c-1.255 5.029-7.711 6.466-11.01 2.496Zm12.815 2.326a.487.487 0 1 1-.971-.038l.407-5.27a.527.527 0 0 0-.526-.569h-.984v-4.781c0-1.254.892-2.303 2.074-2.548V22.37Z"/><rect width="30" height="30" x="1" y="1" stroke="#79C500" stroke-width="2" rx="15"/></svg>