<svg xmlns="http://www.w3.org/2000/svg" width="32" height="32" fill="none"><path fill="#79C500" d="M24.97 12.527a7.078 7.078 0 0 0-4.469-2.6c.58-1 .969-2.098 1.147-3.24.047-.36.172-1.318-.52-1.687-.745-.397-2.777.13-3.956.662a4.965 4.965 0 0 0-2.69 2.42 5.467 5.467 0 0 0-3.1-2.6.813.813 0 0 0-.513 1.545A3.851 3.851 0 0 1 13.4 9.753l.052.203a6.286 6.286 0 0 0-1.808-.05 7.034 7.034 0 0 0-4.607 2.616C3.94 16.415 5.667 22.96 9.16 25.782a6.111 6.111 0 0 0 4.478 1.59 4.902 4.902 0 0 0 1.869-.628.975.975 0 0 1 .975 0c.578.337 1.22.552 1.884.633.18.02.361.03.543.03a6.338 6.338 0 0 0 3.927-1.62c3.499-2.83 5.225-9.374 2.134-13.26ZM15.9 8.943c.343-1.457 2.988-2.275 4.144-2.438-.163 1.145-1.097 3.727-2.52 4.063a1.67 1.67 0 0 1-1.405-.217 1.67 1.67 0 0 1-.22-1.408Zm5.918 15.574a4.508 4.508 0 0 1-3.257 1.239 3.311 3.311 0 0 1-1.267-.429 2.607 2.607 0 0 0-2.595 0 3.28 3.28 0 0 1-1.252.424 4.55 4.55 0 0 1-3.265-1.239c-2.908-2.35-4.344-7.88-1.869-10.991a5.472 5.472 0 0 1 3.518-2.008 5.101 5.101 0 0 1 2.675.446 3.618 3.618 0 0 0 2.087.262c.132.015.265.024.399.026.305 0 .608-.034.906-.1a3.297 3.297 0 0 0 1.276-.635 4.64 4.64 0 0 1 1.001 0 5.475 5.475 0 0 1 3.518 2.013c2.47 3.112 1.034 8.642-1.875 10.992Z"/><path fill="#79C500" d="M12.9 13.156a3.538 3.538 0 0 0-3.318 1.39 4.242 4.242 0 0 0-.837 2.17.812.812 0 0 0 1.611.192 2.7 2.7 0 0 1 .506-1.366 1.955 1.955 0 0 1 1.738-.79.813.813 0 0 0 .3-1.598v.002Z"/><rect width="30" height="30" x="1" y="1" stroke="#79C500" stroke-width="2" rx="15"/></svg>