<svg xmlns="http://www.w3.org/2000/svg" width="22" height="22" fill="none"><path fill="#6F6F6F" d="M19.25 2h-.75v-.75a.75.75 0 1 0-1.5 0V2h-3v-.75a.75.75 0 1 0-1.5 0V2h-3v-.75a.75.75 0 0 0-1.5 0V2H5v-.75a.75.75 0 0 0-1.5 0V2h-.75A2.25 2.25 0 0 0 .5 4.25v15a2.25 2.25 0 0 0 2.25 2.25h16.5a2.25 2.25 0 0 0 2.25-2.25v-15A2.25 2.25 0 0 0 19.25 2ZM20 19.25a.75.75 0 0 1-.75.75H2.75a.75.75 0 0 1-.75-.75V8.75h18v10.5Zm0-12H2v-3a.75.75 0 0 1 .75-.75h.75v.75a.75.75 0 0 0 1.5 0V3.5h3v.75a.75.75 0 0 0 1.5 0V3.5h3v.75a.75.75 0 1 0 1.5 0V3.5h3v.75a.75.75 0 1 0 1.5 0V3.5h.75a.75.75 0 0 1 .75.75v3Z"/><path fill="#6F6F6F" d="M10.25 13.25h1.5a.75.75 0 1 0 0-1.5h-1.5a.75.75 0 1 0 0 1.5ZM5 13.25h1.5a.75.75 0 1 0 0-1.5H5a.75.75 0 1 0 0 1.5ZM15.5 13.25H17a.75.75 0 1 0 0-1.5h-1.5a.75.75 0 1 0 0 1.5ZM10.25 17h1.5a.75.75 0 1 0 0-1.5h-1.5a.75.75 0 1 0 0 1.5ZM5 17h1.5a.75.75 0 1 0 0-1.5H5A.75.75 0 1 0 5 17Z"/></svg>