<svg xmlns="http://www.w3.org/2000/svg" width="32" height="32" fill="none"><path fill="#fff" d="M7 9.582C1.5 10.39 1.5 11.597 1.5 12v16c0 2.966 13.908 3 14.5 3 .592 0 14.5-.034 14.5-3V12c0-.403-.002-1.61-5.5-2.418V8a1.5 1.5 0 0 0-3 0v1.243a67.332 67.332 0 0 0-4.5-.223V8.5a1.5 1.5 0 0 0-3 0v.52c-1.543.026-3.05.1-4.5.223V8a1.5 1.5 0 1 0-3 0v1.582Zm22.5 12.91c-.19.702-4.992 2.008-13.5 2.008-8.497 0-13.3-1.303-13.5-2.005v-1.264c4.29 2.342 22.712 2.342 27 0v1.262Zm0-2.5C29.31 20.695 24.507 22 16 22c-8.497 0-13.3-1.303-13.5-2.005V16.53c1.32.359 1.823-.29 2.456-.481.544-.165.715.058 1.044.515.254.451.675.784 1.174.926a1.72 1.72 0 0 0 1.581-.654c.56-.54.77-.702 1.676.305.066.073.13.145.19.209.63.815 1.801.968 2.62.342.562-.417.923-.88 1.38-.727.499.256.81.773.805 1.335.045.772 0 1.842.634 2.404.227.199.52.306.822.3 1.78 0 1.35-2.6 1.7-3.2a.75.75 0 0 1 .489-.385c.487-.094.747.396 1.287.722.485.31 1.108.301 1.585-.021.56-.354.908-1.015 1.338-1.066.7-.078 1.453 1.31 2.81 1.118 1.512-.218 2.013-1.917 3.2-1.602.072.02.14.05.208.075l.001 3.348Zm0-6.761v2.37c-1.122-.273-1.83.36-2.4.873-1.072.967-1.41.892-2.333.19-2.466-1.867-2.924 1.205-3.893.626-.186-.112-.4-.328-.618-.493a1.664 1.664 0 0 0-2.537.503c-.44.748-.226 2.65-.792 2.7a.234.234 0 0 1-.203-.05c-.296-.262-.277-1.312-.3-1.711a2.437 2.437 0 0 0-1.486-2.227c-1.786-.596-2.283 2.056-3.584.65-.645-.685-1.22-1.433-2.228-1.227-.89.188-1.268 1.167-1.753 1.07-.458-.093-.682-1.065-1.511-1.4a1.818 1.818 0 0 0-1.2-.018c-.822.25-1.131.832-2.165.381v-2.237c4.292 2.342 22.714 2.342 27.003 0ZM16 30c-8.509 0-13.312-1.308-13.5-2v-4.27c4.29 2.342 22.713 2.342 27 0v4.262C29.312 28.693 24.51 30 16 30ZM23 8a.5.5 0 0 1 1 0v3a.5.5 0 0 1-1 0V8Zm-7.5.5a.5.5 0 0 1 1 0v3a.5.5 0 1 1-1 0v-3Zm-1 1.52v1.48a1.5 1.5 0 0 0 3 0v-1.48c1.545.027 3.054.1 4.5.226V11a1.5 1.5 0 0 0 3 0v-.407c3.485.529 4.446 1.208 4.5 1.4-.274 1.013-7.636 2.3-16.513 1.95C6.39 13.684 2.696 12.614 2.503 12c.075-.215 1.05-.884 4.497-1.407V11a1.5 1.5 0 0 0 3 0v-.754a66.477 66.477 0 0 1 4.5-.226ZM8 8a.5.5 0 0 1 1 0v3a.5.5 0 0 1-1 0V8ZM9.031 6a2.01 2.01 0 0 0 1.573-.753c.607-.75.85-3.217.894-3.704a.5.5 0 0 0-.635-.524c-.46.132-2.785.827-3.396 1.58a2.112 2.112 0 0 0 .26 2.916c.363.313.826.485 1.304.485Zm-.787-2.77c.219-.272 1.191-.694 2.176-1.025-.139 1.064-.37 2.138-.593 2.412a1.019 1.019 0 0 1-.7.379 1.003 1.003 0 0 1-.75-.241 1.105 1.105 0 0 1-.133-1.526ZM24.032 6a2.01 2.01 0 0 0 1.573-.753c.607-.75.85-3.217.894-3.704a.5.5 0 0 0-.636-.524c-.46.132-2.785.827-3.396 1.58a2.112 2.112 0 0 0 .261 2.916c.363.313.825.485 1.304.485Zm-.788-2.77c.22-.272 1.192-.694 2.177-1.025-.14 1.064-.371 2.138-.594 2.412a1.019 1.019 0 0 1-.7.379 1 1 0 0 1-.747-.241 1.105 1.105 0 0 1-.136-1.526Z"/><path fill="#fff" d="M16.532 6.5a2.01 2.01 0 0 0 1.573-.753c.607-.75.85-3.217.894-3.704a.5.5 0 0 0-.636-.524c-.46.132-2.785.827-3.396 1.58a2.112 2.112 0 0 0 .261 2.916c.363.313.825.485 1.304.485Zm-.788-2.77c.22-.272 1.192-.694 2.177-1.025-.14 1.064-.371 2.138-.594 2.412a1.019 1.019 0 0 1-.7.379 1 1 0 0 1-.75-.241 1.105 1.105 0 0 1-.133-1.526Z"/></svg>