<svg xmlns="http://www.w3.org/2000/svg" width="53" height="31" fill="none"><path fill="#3362AB" d="M26.462 26.921c3.1-2.855 5.058-6.934 5.058-11.421 0-4.569-1.958-8.648-5.058-11.421C23.69 1.63 20.1.08 16.102.08 7.535.081.602 7.015.602 15.5c0 8.566 6.933 15.5 15.5 15.5 3.997-.081 7.587-1.631 10.36-4.079Z"/><path fill="#3362AB" d="M26.463 26.92c3.1-2.855 5.058-6.934 5.058-11.42 0-4.57-1.958-8.648-5.058-11.422"/><path stroke="#3362AB" stroke-width=".31" d="M26.463 26.92c3.1-2.855 5.058-6.934 5.058-11.42 0-4.57-1.958-8.648-5.058-11.422"/><path fill="#C9191B" d="M36.827 0a15.44 15.44 0 0 0-10.36 3.997c-.572.49-1.061 1.061-1.55 1.632h3.1c.407.49.815 1.06 1.141 1.632h-5.466c-.326.49-.652 1.06-.897 1.631h7.26c.245.571.49 1.06.653 1.632h-8.566c-.163.571-.326 1.06-.49 1.632h9.464c.245 1.06.327 2.12.327 3.263 0 1.713-.245 3.345-.816 4.895H22.06a9.72 9.72 0 0 0 .652 1.631h7.261a10.45 10.45 0 0 1-.897 1.632H23.61a11.66 11.66 0 0 0 1.142 1.632h3.1c-.49.57-.979 1.142-1.55 1.631 2.774 2.448 6.363 3.998 10.36 3.998 8.567 0 15.42-6.935 15.42-15.5C52.327 6.933 45.393 0 36.827 0Z"/><path fill="#fff" d="M14.145 19.254h-1.958l1.142-6.037-2.61 6.037H9.005l-.326-5.956-1.142 5.956H5.824l1.468-7.832h3.019l.163 4.895 2.121-4.895h3.1l-1.55 7.832ZM35.682 19.252c-.49.163-.979.245-1.387.245-.979 0-1.55-.49-1.55-1.387 0-.163 0-.408.082-.571l.081-.653.082-.49.897-4.894h1.877l-.245 1.468h.979l-.245 1.55h-.979l-.49 2.693v.244c0 .327.245.49.653.49.245 0 .408 0 .49-.082l-.245 1.387ZM41.229 12.971c-.163-.082-.163-.082-.245-.082H40.576c-.653 0-1.06.245-1.713 1.06l.163-.978h-1.55l-1.142 6.363h1.958c.653-3.916.979-4.568 1.876-4.568h.245l.245.081.57-1.876ZM28.014 14.928c0 .816.489 1.387 1.468 1.795.816.327.897.408.897.735 0 .407-.326.57-1.142.57a6.21 6.21 0 0 1-1.713-.244l-.245 1.468h.082l.326.082c.082 0 .326.082.49.082.49 0 .816.081 1.06.081 2.04 0 3.019-.653 3.019-2.121 0-.898-.408-1.387-1.387-1.795-.816-.326-.898-.408-.898-.734s.327-.49.98-.49c.407 0 .897 0 1.386.082l.245-1.469c-.49-.081-1.224-.163-1.713-.163-2.121 0-2.855.98-2.855 2.121ZM19.038 16.479h-.407c-1.061 0-1.632.326-1.632.979 0 .407.245.652.653.652.734-.081 1.305-.734 1.386-1.631Zm1.387 2.773h-1.631l.081-.652c-.49.49-1.142.734-2.04.734-1.06 0-1.712-.734-1.712-1.713 0-1.55 1.223-2.448 3.344-2.448.245 0 .49 0 .816.082.082-.245.082-.327.082-.408 0-.408-.327-.571-1.224-.571-.571 0-1.142.081-1.55.163l-.245.082-.163.081.245-1.468c.979-.245 1.55-.327 2.284-.327 1.632 0 2.53.653 2.53 1.877 0 .326 0 .57-.164 1.224l-.408 2.284-.082.408-.081.326v.245l-.082.081ZM25.73 15.338v-.326c0-.49-.326-.816-.897-.816-.653 0-1.06.408-1.224 1.142h2.121Zm.979 3.834a8.045 8.045 0 0 1-1.958.245c-2.121 0-3.263-.979-3.263-2.855 0-2.203 1.387-3.835 3.345-3.835 1.55 0 2.61.898 2.61 2.285 0 .49-.081.897-.245 1.55h-3.834v.163c0 .734.571 1.142 1.713 1.142.653 0 1.306-.163 2.04-.408l-.408 1.713ZM45.227 15.581c0-.652-.245-1.305-1.06-1.305-.98 0-1.55 1.142-1.55 2.203 0 .897.407 1.468 1.141 1.468.408 0 1.306-.571 1.469-1.55v-.816Zm2.04.816c-.327 2.121-1.795 3.1-3.753 3.1-2.203 0-3.019-1.305-3.019-2.937 0-2.284 1.469-3.753 3.753-3.753 2.04 0 3.018 1.224 3.018 2.856.082.326.082.326 0 .734Z"/></svg>