<svg xmlns="http://www.w3.org/2000/svg" width="24" height="24" fill="none"><path fill="#168DE2" fill-rule="evenodd" d="M0 12C0 5.373 5.373 0 12 0s12 5.373 12 12-5.373 12-12 12S0 18.627 0 12Z" clip-rule="evenodd"/><path fill="#fff" fill-rule="evenodd" d="M14.486 11.934c-.081-1.592-1.263-2.55-2.69-2.55h-.054c-1.647 0-2.56 1.296-2.56 2.767 0 1.648 1.105 2.688 2.553 2.688 1.616 0 2.679-1.183 2.755-2.583l-.004-.322ZM11.75 7.96c1.1 0 2.135.487 2.895 1.248v.003c0-.366.246-.641.588-.641h.086c.535 0 .644.505.644.665l.003 5.686c-.038.372.384.564.618.325.913-.938 2.005-4.823-.568-7.074C13.62 6.074 10.402 6.42 8.691 7.6c-1.819 1.254-2.983 4.03-1.852 6.637 1.232 2.845 4.759 3.693 6.854 2.847 1.062-.428 1.552 1.007.45 1.475-1.666.71-6.301.639-8.467-3.113-1.463-2.533-1.385-6.99 2.495-9.298 2.969-1.766 6.882-1.277 9.242 1.187 2.467 2.577 2.323 7.401-.083 9.278-1.09.851-2.71.022-2.699-1.22l-.011-.406a4.049 4.049 0 0 1-2.87 1.193c-2.174 0-4.088-1.913-4.088-4.087 0-2.196 1.914-4.132 4.088-4.132Z" clip-rule="evenodd"/></svg>