<svg xmlns="http://www.w3.org/2000/svg" width="32" height="32" fill="none"><g fill="#fff" clip-path="url(#a)"><path d="m22.66 10.785-.342-1.127a2.448 2.448 0 0 0-4.636 0l-.342 1.127a6.33 6.33 0 0 0-.177 2.934 2.76 2.76 0 0 0 1.42 1.922l-.382 8.572c-.052.479.103.956.426 1.313a1.863 1.863 0 0 0 2.75 0c.316-.346.47-.81.427-1.277l-.386-8.609a2.759 2.759 0 0 0 1.419-1.921 6.33 6.33 0 0 0-.177-2.934Zm-.874 2.748a1.691 1.691 0 0 1-1.107 1.274.533.533 0 0 0-.345.523l.406 9.003a.617.617 0 0 1-.16.484.824.824 0 0 1-1.16 0 .64.64 0 0 1-.157-.519l.402-8.968a.533.533 0 0 0-.345-.523 1.691 1.691 0 0 1-1.106-1.274 5.259 5.259 0 0 1 .146-2.435l.343-1.128a1.383 1.383 0 0 1 2.594 0l.342 1.128c.24.789.29 1.623.147 2.435ZM14.4 8a.533.533 0 0 0-.533.533v4.58l-1.444 1.443a.533.533 0 0 0-.156.404l.466 9.333a.726.726 0 0 1-.201.544.751.751 0 0 1-1.062.005l-.005-.005a.726.726 0 0 1-.201-.544l.47-9.333a.533.533 0 0 0-.156-.404l-1.445-1.443v-4.58a.533.533 0 0 0-1.066 0v4.8c0 .142.056.277.156.377l1.432 1.433-.454 9.099a1.802 1.802 0 1 0 3.598 0l-.454-9.099 1.432-1.433c.1-.1.156-.235.156-.377v-4.8A.533.533 0 0 0 14.4 8Z"/><path d="M11.2 8a.533.533 0 0 0-.533.533V12.8a.533.533 0 0 0 1.066 0V8.533A.533.533 0 0 0 11.2 8ZM12.8 8a.533.533 0 0 0-.533.533V12.8a.533.533 0 0 0 1.066 0V8.533A.533.533 0 0 0 12.8 8Z"/><path d="M16 0C7.163 0 0 7.163 0 16s7.163 16 16 16 16-7.163 16-16C31.99 7.168 24.832.01 16 0Zm0 30.933C7.753 30.933 1.067 24.247 1.067 16S7.753 1.067 16 1.067 30.933 7.753 30.933 16c-.01 8.244-6.69 14.924-14.933 14.933Z"/><path d="M17.731 26.011a.533.533 0 0 0-.603-.476h.002c-.75.086-1.51.086-2.26 0a.533.533 0 1 0-.124 1.059 10.8 10.8 0 0 0 2.506 0 .533.533 0 0 0 .48-.583ZM24.16 9.127a.533.533 0 0 0-.751-.065l-.003.001a.533.533 0 0 0-.064.752 9.6 9.6 0 0 1-.566 12.985.534.534 0 0 0 .754.756 10.667 10.667 0 0 0 .63-14.429ZM18.516 5.632c-2.085-.5-4.27-.366-6.278.385a.533.533 0 0 0 .374.998 9.689 9.689 0 0 1 5.653-.347.533.533 0 1 0 .25-1.036ZM9.2 22.773A9.538 9.538 0 0 1 6.4 16a9.53 9.53 0 0 1 1.835-5.647.533.533 0 1 0-.862-.628 10.667 10.667 0 0 0 1.07 13.804.534.534 0 0 0 .756-.756Z"/></g><defs><clipPath id="a"><path fill="#fff" d="M0 0h32v32H0z"/></clipPath></defs></svg>