<svg xmlns="http://www.w3.org/2000/svg" width="51" height="31" fill="none"><path fill="#F9B50B" d="M50.601 15.5c0 8.231-6.692 15-15 15-8.23 0-15-6.769-15-15 0-8.23 6.692-15 14.923-15 8.385 0 15.077 6.77 15.077 15Z"/><path fill="#C8191C" d="M30.523 15.577c0-1.077-.154-2.154-.308-3.154h-9.23c.077-.538.23-1 .384-1.615H29.6c-.154-.538-.385-1.077-.615-1.615h-7c.23-.539.538-1 .846-1.616h5.308a10.501 10.501 0 0 0-1.154-1.615h-2.923c.461-.539.923-1 1.538-1.539C22.985 1.962 19.446.5 15.523.5 7.37.731.6 7.27.6 15.5c0 8.231 6.692 15 15 15 3.923 0 7.385-1.538 10.077-3.923.538-.461 1-1 1.538-1.615H24.14c-.385-.462-.77-1-1.077-1.539h5.23c.308-.461.616-1 .847-1.615h-7c-.231-.462-.462-1-.616-1.615h8.23c.462-1.385.77-2.924.77-4.616Z"/><path fill="#fff" d="m20.908 19.346.23-1.385c-.076 0-.23.077-.384.077-.539 0-.615-.307-.539-.461l.462-2.77h.846l.23-1.538h-.768l.154-.923h-1.616s-.923 5.23-.923 5.846c0 .923.539 1.385 1.308 1.385a2.36 2.36 0 0 0 1-.231ZM21.447 16.805c0 2.231 1.538 2.77 2.769 2.77 1.154 0 1.692-.231 1.692-.231l.308-1.539s-.846.385-1.692.385c-1.77 0-1.462-1.308-1.462-1.308h3.23s.232-1 .232-1.461c0-1-.539-2.308-2.308-2.308-1.539-.077-2.77 1.692-2.77 3.692Zm2.769-2.307c.846 0 .692 1 .692 1.077H23.14c.077-.077.23-1.077 1.077-1.077ZM34.291 19.347l.308-1.77s-.77.385-1.385.385c-1.076 0-1.615-.846-1.615-1.846 0-1.923.923-2.923 2.077-2.923.77 0 1.462.461 1.462.461l.23-1.692s-.923-.385-1.846-.385c-1.846 0-3.615 1.616-3.615 4.616 0 2 .923 3.307 2.846 3.307.692.077 1.538-.153 1.538-.153ZM12.216 13.038c-1.077 0-1.923.308-1.923.308l-.23 1.385s.692-.308 1.769-.308c.538 0 1 .077 1 .538 0 .308-.077.385-.077.385h-.693c-1.384 0-2.846.538-2.846 2.385 0 1.461.923 1.769 1.539 1.769 1.077 0 1.615-.692 1.692-.692l-.077.615h1.308l.615-4.385c0-1.923-1.538-2-2.077-2Zm.308 3.539c0 .23-.154 1.538-1.077 1.538-.461 0-.615-.384-.615-.615 0-.385.23-.923 1.461-.923h.231ZM15.83 19.5c.384 0 2.384.077 2.384-2.077 0-2-1.923-1.616-1.923-2.385 0-.385.308-.538.846-.538.231 0 1.077.077 1.077.077l.231-1.462s-.538-.154-1.538-.154c-1.154 0-2.385.462-2.385 2.077 0 1.846 2 1.692 2 2.385 0 .461-.538.538-.923.538-.692 0-1.462-.23-1.462-.23l-.23 1.461c.154.154.615.308 1.923.308ZM47.522 11.808l-.307 2.154s-.616-.77-1.539-.77c-1.461 0-2.692 1.77-2.692 3.847 0 1.307.615 2.615 2 2.615.923 0 1.538-.615 1.538-.615l-.077.538h1.616l1.154-7.615-1.693-.154Zm-.769 4.154c0 .846-.385 2-1.308 2-.538 0-.846-.462-.846-1.308 0-1.308.539-2.077 1.308-2.077.538.077.846.462.846 1.385ZM3.523 19.423l.923-5.692.154 5.692h1.077l2.077-5.692-.846 5.692H8.6l1.308-7.615H7.293L5.677 16.5 5.6 11.808H3.293l-1.308 7.615h1.538Z"/><path fill="#fff" d="M28.139 19.422c.461-2.615.538-4.769 1.692-4.384.154-1 .385-1.462.539-1.846h-.308c-.692 0-1.308.923-1.308.923l.154-.846H27.37l-1 6.153h1.769ZM37.986 13.038c-1.077 0-1.923.308-1.923.308l-.231 1.385s.692-.308 1.77-.308c.538 0 1 .077 1 .538 0 .308-.078.385-.078.385h-.692c-1.385 0-2.846.538-2.846 2.385 0 1.461.923 1.769 1.538 1.769 1.077 0 1.616-.692 1.693-.692l-.077.615H39.6l.616-4.385c0-1.923-1.693-2-2.231-2Zm.385 3.539c0 .23-.154 1.538-1.078 1.538-.461 0-.615-.384-.615-.615 0-.385.23-.923 1.462-.923h.23ZM41.447 19.422c.462-2.615.539-4.769 1.693-4.384.154-1 .384-1.462.538-1.846h-.307c-.693 0-1.308.923-1.308.923l.154-.846h-1.539l-1 6.153h1.77Z"/></svg>