<svg xmlns="http://www.w3.org/2000/svg" width="52" height="15" fill="none"><path fill="url(#a)" d="M46.625 0h-9.962c.58 3.288 3.772 6.383 7.254 6.383h7.93c.097-.29.097-.774.097-1.064 0-2.901-2.418-5.319-5.32-5.319Z"/><path fill="#4FAD50" d="M37.527 6.973V15h4.836v-4.255h4.256c2.32 0 4.352-1.645 5.029-3.772h-14.12ZM20.544 0v14.894h4.255s1.064 0 1.645-1.064c2.901-5.706 3.771-7.447 3.771-7.447h.58v8.511h4.837V0h-4.256s-1.064.097-1.644 1.064C27.314 5.996 25.96 8.51 25.96 8.51h-.58V0h-4.836ZM.241 14.997V.103h4.836s1.354 0 2.128 2.127c1.934 5.61 2.127 6.383 2.127 6.383S9.72 7.26 11.46 2.23C12.234.103 13.588.103 13.588.103h4.836v14.894h-4.836V6.969h-.58L10.3 14.997H8.172L5.464 6.969h-.58v8.028H.24Z"/><defs><linearGradient id="a" x1="36.646" x2="51.91" y1="3.237" y2="3.237" gradientUnits="userSpaceOnUse"><stop stop-color="#27B1E6"/><stop offset="1" stop-color="#148ACA"/></linearGradient></defs></svg>