<svg xmlns="http://www.w3.org/2000/svg" width="30" height="30" fill="none"><path fill="#F9AA00" d="M15.906 3.101a.813.813 0 0 0-.664-.17L2.326 5.351a.805.805 0 0 0-.659.793v17.76c0 .388.276.722.659.793l12.916 2.422a.807.807 0 0 0 .956-.793V3.723a.805.805 0 0 0-.292-.622Zm-1.322 22.253L3.282 23.235V6.815l11.302-2.118v20.657Z"/><path fill="#F9AA00" d="M26.693 6.145H15.391a.808.808 0 0 0 0 1.615h10.495v14.53H15.391a.808.808 0 0 0 0 1.615h11.302a.808.808 0 0 0 .808-.807V6.952a.808.808 0 0 0-.808-.807Z"/><path fill="#F9AA00" d="M18.62 9.374h-3.229a.808.808 0 0 0 0 1.615h3.23a.808.808 0 0 0 0-1.615ZM18.62 12.603h-3.229a.808.808 0 0 0 0 1.615h3.23a.808.808 0 0 0 0-1.615ZM18.62 15.832h-3.229a.808.808 0 0 0 0 1.615h3.23a.808.808 0 0 0 0-1.614ZM18.62 19.061h-3.229a.808.808 0 0 0 0 1.615h3.23a.808.808 0 0 0 0-1.614ZM23.464 9.374h-1.615a.808.808 0 0 0 0 1.615h1.615a.808.808 0 0 0 0-1.615ZM23.464 12.603h-1.615a.808.808 0 0 0 0 1.615h1.615a.808.808 0 0 0 0-1.615ZM23.464 15.832h-1.615a.808.808 0 0 0 0 1.615h1.615a.808.808 0 0 0 0-1.614ZM23.464 19.061h-1.615a.808.808 0 0 0 0 1.615h1.615a.808.808 0 0 0 0-1.614ZM12.77 17.723l-5.651-6.458a.807.807 0 1 0-1.216 1.062l5.651 6.458a.805.805 0 0 0 1.14.076.806.806 0 0 0 .076-1.138Z"/><path fill="#F9AA00" d="M12.657 10.353a.807.807 0 0 0-1.133.14L5.873 17.76a.809.809 0 0 0 1.274.993l5.65-7.266a.807.807 0 0 0-.14-1.133Z"/></svg>