<svg xmlns="http://www.w3.org/2000/svg" width="30" height="30" fill="none"><g clip-path="url(#a)"><path fill="#79C500" stroke="#fff" stroke-width="1.4" d="M1.522 3.052c-.338 0-.66.122-.922.32-.676.52-.799 1.481-.276 2.137v.016l6.623 8.424v9.019l5.594 5.586c.553.595 1.567.595 2.167 0 .599-.596.599-1.557.015-2.152l-4.703-4.7v-8.806L2.753 3.647a1.547 1.547 0 0 0-1.23-.595ZM29.414.336C29.122.122 28.8 0 28.461 0H6.948c-.338 0-.66.122-.953.336a1.519 1.519 0 0 0-.261 2.137l7.361 9.354v7.814c-.061.443.092.916.446 1.267l6.162 6.12c.6.595 1.567.595 2.167 0 .353-.321.507-.81.445-1.267V11.827l7.362-9.355a1.519 1.519 0 0 0-.262-2.136ZM19.241 10.759v11.492l-3.073-3.053v-8.424l-6.086-7.722h15.245L19.24 10.76Z"/></g><defs><clipPath id="a"><path fill="#fff" d="M0 0h30v30H0z"/></clipPath></defs></svg>