<svg xmlns="http://www.w3.org/2000/svg" width="30" height="30" fill="none"><g stroke="#79C500" stroke-linejoin="round" stroke-width="1.6" clip-path="url(#a)"><path d="M2.593 1.984 25.62 25.01a2.33 2.33 0 0 1-3.295 3.295L16.7 22.583a2 2 0 0 1-.575-1.402v-.345a2 2 0 0 0-.595-1.424l-.727-.67a2 2 0 0 0-1.862-.466 3.033 3.033 0 0 1-2.91-.789l-5.34-5.34C1.525 8.98.36 4.197 2.594 1.984Z"/><path stroke-linecap="round" d="m24 1-4.828 4.828A4 4 0 0 0 18 8.657v.928a1 1 0 0 1-.293.708L17 11m2 2 .707-.707a1 1 0 0 1 .707-.293h.929a4 4 0 0 0 2.829-1.172L29 6m-2.5-2.5-5 5M11.5 22l-6.232 6.267a2.5 2.5 0 0 1-3.535-3.535L7 19.499"/></g><defs><clipPath id="a"><path fill="#fff" d="M0 0h30v30H0z"/></clipPath></defs></svg>