<svg xmlns="http://www.w3.org/2000/svg" width="30" height="30" fill="none"><path fill="#F68634" fill-rule="evenodd" d="M0 15C0 6.716 6.716 0 15 0c8.284 0 15 6.716 15 15 0 8.284-6.716 15-15 15-8.284 0-15-6.716-15-15Z" clip-rule="evenodd"/><path fill="#fff" fill-rule="evenodd" d="M16.65 11.371c0-.884-.745-1.602-1.66-1.602-.915 0-1.66.718-1.66 1.602 0 .883.745 1.602 1.66 1.602.915 0 1.66-.719 1.66-1.602Zm2.35 0c0 2.134-1.798 3.87-4.01 3.87-2.212 0-4.01-1.736-4.01-3.87 0-2.135 1.798-3.871 4.01-3.871 2.212 0 4.01 1.736 4.01 3.871Zm-.049 6.098a7.662 7.662 0 0 1-2.329.931l2.242 2.164c.46.443.46 1.161 0 1.604a1.204 1.204 0 0 1-1.66 0L15 20.04l-2.203 2.127c-.23.221-.53.332-.83.332-.301 0-.602-.11-.831-.332a1.107 1.107 0 0 1 0-1.604l2.241-2.164a7.67 7.67 0 0 1-2.328-.93 1.111 1.111 0 0 1-.368-1.564c.345-.531 1.07-.691 1.62-.357a5.247 5.247 0 0 0 5.398 0 1.199 1.199 0 0 1 1.62.357c.346.53.18 1.23-.368 1.563Z" clip-rule="evenodd"/></svg>