<svg xmlns="http://www.w3.org/2000/svg" width="70" height="70" fill="none"><path stroke="#151716" stroke-linecap="round" stroke-linejoin="round" stroke-miterlimit="10" stroke-width="2.4" d="M45.87 7.826h9.782A4.348 4.348 0 0 1 60 12.174v52.174a4.348 4.348 0 0 1-4.348 4.348H14.348A4.348 4.348 0 0 1 10 64.348V12.174a4.348 4.348 0 0 1 4.348-4.348h9.783"/><path stroke="#151716" stroke-linecap="round" stroke-linejoin="round" stroke-miterlimit="10" stroke-width="2.4" d="M42.609 12.174H27.39a3.26 3.26 0 0 1-3.26-3.261V6.739c0-.6.486-1.087 1.086-1.087h19.566c.6 0 1.086.487 1.086 1.087v2.174c0 1.8-1.46 3.26-3.26 3.26ZM37.174 5.652V3.478a2.174 2.174 0 0 0-4.348 0v2.174M49.48 12.174h6.172v52.174H14.348V12.174h6.17"/><path stroke="#79C500" stroke-linecap="round" stroke-linejoin="round" stroke-miterlimit="10" stroke-width="2.4" d="M28.535 43.64h-6.522c-1.2 0-2.174-.974-2.174-2.175v-6.521c0-1.2.973-2.174 2.174-2.174h6.521c1.201 0 2.174.973 2.174 2.174v6.521c0 1.201-.973 2.174-2.173 2.174Z"/><path stroke="#79C500" stroke-linecap="round" stroke-linejoin="round" stroke-miterlimit="10" stroke-width="2.4" d="m23.1 38.205 1.63 1.63 2.661-2.661M28.535 58.8h-6.522c-1.2 0-2.174-.973-2.174-2.173v-6.522c0-1.2.973-2.174 2.174-2.174h6.521c1.201 0 2.174.973 2.174 2.174v6.522c0 1.2-.973 2.173-2.173 2.173ZM28.535 28.422h-6.522c-1.2 0-2.174-.973-2.174-2.174v-6.522c0-1.2.973-2.174 2.174-2.174h6.521c1.201 0 2.174.974 2.174 2.174v6.522c0 1.2-.973 2.174-2.173 2.174Z"/><path stroke="#79C500" stroke-linecap="round" stroke-linejoin="round" stroke-miterlimit="10" stroke-width="2.4" d="m23.1 22.987 1.63 1.63 2.661-2.66M35 20.87h9.783M35 25.217h15.217M35 36.087h9.783M35 40.435h15.217M35 51.304h9.783M35 55.652h15.217"/></svg>