<svg xmlns="http://www.w3.org/2000/svg" width="24" height="24" fill="none"><g fill="#79C500" clip-path="url(#a)"><path d="M3.514 3.514c-4.68 4.68-4.68 12.291 0 16.971A11.967 11.967 0 0 0 12 23.994c3.074 0 6.148-1.172 8.485-3.509 4.68-4.68 4.68-12.291 0-16.971s-12.291-4.68-16.971 0ZM19.68 19.679c-4.235 4.235-11.12 4.235-15.355 0-4.234-4.234-4.234-11.12 0-15.354a10.834 10.834 0 0 1 7.68-3.177 10.82 10.82 0 0 1 7.68 3.177c4.223 4.229 4.223 11.12-.005 15.354Z"/><path d="M17.458 6.543a.57.57 0 0 0-.806 0L12 11.193 7.355 6.549a.57.57 0 1 0-.806.806L11.195 12l-4.646 4.645a.569.569 0 0 0 .406.972.585.585 0 0 0 .405-.166L12 12.805l4.646 4.646a.561.561 0 0 0 .406.166.57.57 0 0 0 .406-.971L12.806 12l4.646-4.646a.57.57 0 0 0 .006-.811Z"/></g><defs><clipPath id="a"><path fill="#fff" d="M0 0h24v24H0z"/></clipPath></defs></svg>