<svg xmlns="http://www.w3.org/2000/svg" width="20" height="12" fill="none"><path fill="#CBD3D9" d="M17.5 11h-5V8.5h-1.417c-.916 2-3 3.333-5.25 3.333A5.797 5.797 0 0 1 0 6 5.797 5.797 0 0 1 5.833.167c2.25 0 4.334 1.333 5.25 3.333H20v5h-2.5V11Zm-3.333-1.667h1.666v-2.5h2.5V5.167H9.917l-.167-.584c-.583-1.666-2.167-2.75-3.917-2.75A4.126 4.126 0 0 0 1.667 6a4.126 4.126 0 0 0 4.166 4.167c1.75 0 3.334-1.084 3.917-2.75l.167-.584h4.25v2.5ZM5.833 8.5c-1.416 0-2.5-1.083-2.5-2.5s1.084-2.5 2.5-2.5c1.417 0 2.5 1.083 2.5 2.5s-1.083 2.5-2.5 2.5Zm0-3.333C5.333 5.167 5 5.5 5 6c0 .5.333.833.833.833.5 0 .834-.333.834-.833 0-.5-.334-.833-.834-.833Z"/></svg>