<svg xmlns="http://www.w3.org/2000/svg" width="35" height="35" fill="none"><path fill="#F28A1A" d="M26.91 22.007c.582.25.831 1.08.831 1.495.083.664-.083.997-.332.997-.25 0-.581-.25-.913-.83-.333-.582-.499-1.163-.333-1.496.25-.166.499-.249.748-.166ZM23.503 24.58c.332 0 .747.166 1.162.498.665.582.914 1.246.582 1.744-.167.25-.582.416-.914.416-.415 0-.83-.166-1.08-.416-.664-.581-.83-1.412-.415-1.91.083-.166.332-.332.665-.332Z"/><path fill="#F28A1A" d="M15.613 31.142C6.976 31.142 0 24.166 0 15.612 0 7.06 6.976 0 15.613 0s15.613 6.976 15.613 15.613c0 2.906-.83 5.647-2.16 7.972-.082.083-.165.083-.165-.083-.582-3.82-2.907-5.896-6.229-6.56-.332-.084-.332-.25.083-.25 1.08-.083 2.491-.083 3.322.083.083-.415.083-.83.083-1.162 0-5.647-4.65-10.298-10.298-10.298-5.647 0-10.297 4.65-10.297 10.298 0 5.647 4.65 10.297 10.297 10.297h.498c-.166-.913-.249-1.827-.166-2.823 0-.665.166-.748.416-.25 1.412 2.492 3.488 4.651 7.474 5.565 3.239.747 6.477 1.578 10.048 5.979.333.415-.166.83-.498.498-3.57-3.155-6.81-4.235-9.8-4.235-3.736.083-5.979.498-8.22.498Z"/></svg>