<svg xmlns="http://www.w3.org/2000/svg" width="16" height="17" fill="none"><g fill="#CBD3D9" clip-path="url(#a)"><path d="M2.343 2.842c-3.12 3.12-3.12 8.195 0 11.315A7.978 7.978 0 0 0 8 16.496c2.05 0 4.1-.781 5.657-2.34 3.12-3.12 3.12-8.194 0-11.314-3.12-3.12-8.194-3.12-11.314 0ZM13.12 13.62a7.245 7.245 0 0 1-10.236 0 7.245 7.245 0 0 1 0-10.237 7.222 7.222 0 0 1 5.12-2.118c1.855 0 3.707.705 5.12 2.118 2.815 2.82 2.815 7.414-.004 10.237Z"/><path d="M11.639 4.862a.38.38 0 0 0-.537 0L8 7.962 4.903 4.866a.38.38 0 1 0-.537.538L7.463 8.5l-3.097 3.097a.38.38 0 0 0 .27.648.39.39 0 0 0 .271-.11l3.094-3.098 3.097 3.097c.076.076.171.11.27.11a.38.38 0 0 0 .27-.648L8.539 8.5l3.097-3.097a.38.38 0 0 0 .004-.541Z"/></g><defs><clipPath id="a"><path fill="#fff" d="M0 .5h16v16H0z"/></clipPath></defs></svg>