<svg xmlns="http://www.w3.org/2000/svg" width="97" height="13" fill="none"><path fill="#2F69B1" d="M1.247 1.09c-.402.2-.737.536-.871.87-.067.202-.134 2.01-.134 5.293v4.958h2.344V9.062h3.082l.804 1.54.804 1.542h1.34c.737 0 1.34 0 1.34-.067s-.402-.871-.938-1.81l-.938-1.74.268-.135c1.34-.87 1.943-2.68 1.608-4.69-.201-1.205-.804-2.076-1.742-2.478-.536-.201-.603-.268-3.618-.268-2.345 0-3.081 0-3.35.134Zm5.828 2.278a.943.943 0 0 1 .402.469c.201.468.201 1.607.067 1.942-.402.804-.938 1.005-3.216 1.005H2.653v-3.55H4.73c1.14 0 2.211.067 2.345.134Zm6.297-2.345c-1.005.335-1.741 1.005-2.01 2.01-.267.804-.535 2.612-.535 3.55 0 .871.268 2.613.469 3.35.402 1.206 1.005 1.876 2.143 2.144.536.134 1.005.134 2.747.134 1.943 0 2.144-.067 2.68-.268 1.407-.603 2.01-2.278 2.01-5.36 0-3.282-.67-4.89-2.144-5.426-.536-.201-.737-.201-2.88-.201-1.14 0-2.279.067-2.48.067Zm4.69 2.479c.67.937.67 5.493 0 6.163-.201.2-4.087.2-4.22 0-.47-.603-.67-3.886-.269-5.427.134-.602.201-.803.402-.87.134-.067 1.072-.067 2.144-.067 1.608 0 1.876 0 1.943.2Zm5.091-2.345a2.576 2.576 0 0 0-.602.603c-.201.335-.201.536-.268 4.555 0 2.814 0 4.355.066 4.623.201.603.604 1.072 1.206 1.206.603.134 5.092.134 5.896 0 1.54-.268 2.345-1.14 2.479-2.814.067-.938-.067-1.608-.47-2.278l-.267-.469.402-.737c.335-.67.402-.737.402-1.742 0-.803-.067-1.138-.201-1.54-.268-.603-.67-1.005-1.273-1.34l-.536-.268h-3.149c-3.283 0-3.283 0-3.684.2Zm6.23 2.21c.135.135.202.804.135 1.14-.067.2-.201.401-.335.602-.268.268-.268.268-2.345.268h-2.077V3.234h2.278c1.206.067 2.278.134 2.345.134Zm-.468 4.49c.402.133.603.602.603 1.138 0 .335-.067.536-.201.603-.134.134-.737.134-2.412.134h-2.278V7.588l2.01.067c1.139.067 2.144.134 2.278.201Zm6.364-6.7c-1.005.402-1.474 1.072-1.876 2.546-.2.736-.2 1.138-.2 2.88 0 1.81 0 2.01.267 2.948.335 1.139.603 1.608 1.206 2.077.737.536.938.536 3.484.536 2.546 0 2.814-.067 3.484-.536.603-.402.87-.938 1.206-2.077.267-.938.267-1.139.267-2.948 0-1.675 0-2.077-.2-2.88-.402-1.541-.871-2.211-1.876-2.546-.536-.201-.737-.201-2.881-.201-2.144 0-2.412 0-2.88.2Zm4.824 2.21c.268.135.402.403.603 1.541.268 1.407 0 4.02-.402 4.623-.134.268-.134.268-2.144.268-2.345 0-2.21.067-2.479-1.273-.402-1.876-.067-4.957.47-5.158.334-.134 3.684-.134 3.952 0Z"/><path fill="#D31223" d="m45.058 1.225-.335.335v9.982l.268.268c.268.268.402.268.871.268s.603-.067.804-.201c.335-.402.402-.804.402-2.546V7.656h1.474l.737.67c1.474 1.273 2.01 1.943 2.01 2.68 0 .402.066.536.334.803.335.336.402.336.871.336.402 0 .536-.067.804-.268.335-.268.335-.335.335-1.072 0-.603-.067-.871-.335-1.407-.335-.737-1.407-1.943-2.01-2.479l-.401-.335.67-.603c.803-.737 1.54-1.675 1.875-2.412.201-.402.268-.737.268-1.273 0-.736 0-.736-.335-1.071-.268-.268-.402-.268-.938-.268-.602 0-.67 0-.87.268-.135.2-.202.402-.202.736 0 .268-.066.603-.133.737-.202.402-.938 1.273-1.876 2.077l-.737.603h-1.474V3.703c0-.87-.067-1.808-.134-2.01-.134-.535-.536-.803-1.139-.803-.469.067-.536.067-.804.335Zm12.796-.134c-1.34.402-2.077 1.406-2.613 3.35-.268.87-.268 1.205-.335 3.75-.067 3.016 0 3.35.47 3.685.334.269 1.205.269 1.473 0 .335-.267.469-.602.469-1.607V9.264h5.225v1.139c0 1.072 0 1.139.268 1.406.268.269.402.269.871.269.536 0 .603 0 .871-.335l.268-.335V8.192c-.067-3.015-.067-3.283-.268-3.953-.469-1.608-1.206-2.612-2.144-3.014-.535-.268-.67-.268-2.344-.268-1.273 0-1.943 0-2.211.134Zm3.483 2.277c.536.201 1.005 1.407 1.14 2.948l.066.67h-5.225l.067-.804c.134-1.407.67-2.747 1.206-2.88.469-.068 2.412 0 2.746.066Zm6.7-2.277c-1.005.335-1.541.804-1.876 1.674-.2.47-.2.737-.2 1.541 0 1.608.468 2.546 1.607 3.082.469.2.603.268 2.613.268 2.076.067 2.143.067 2.344.268.268.268.335 1.139.067 1.54l-.2.269h-2.68c-2.546 0-2.747 0-2.948.2-.536.47-.603 1.408-.067 1.877l.335.268h2.948c1.608 0 3.081-.067 3.282-.134.536-.135 1.14-.737 1.541-1.474.335-.603.335-.737.335-1.81 0-1.004 0-1.138-.268-1.674-.335-.737-.804-1.206-1.273-1.474-.335-.134-.67-.2-2.68-.268-2.68-.067-2.612 0-2.612-1.072S68.17 3.167 71.387 3.1l2.746-.067.268-.268c.268-.268.268-.335.335-1.138l.067-.871h-3.148c-2.278.2-3.35.268-3.618.335Zm9.982 0c-.201.067-.536.2-.737.268-1.273.67-1.876 3.014-1.072 4.622.335.67.67 1.072 1.273 1.407.469.268.536.268 2.546.335 1.139 0 2.144.067 2.278.134.334.134.535.67.401 1.273-.133.737 0 .737-3.081.737H76.88l-.268.268c-.268.268-.268.402-.268.87 0 .47.067.604.268.871l.268.269h3.015c3.416 0 3.483 0 4.153-.67.603-.603.871-1.273.938-2.48.067-1.34-.2-2.143-.938-2.88-.335-.335-.67-.536-.938-.603-.2-.067-1.206-.134-2.277-.134-1.072 0-2.01 0-2.211-.067-.335-.067-.536-.402-.536-1.005 0-.603.134-.938.536-1.005.2 0 1.407-.067 2.747-.067 3.148 0 3.215-.067 3.215-1.54V.957h-3.148c-2.077 0-3.15.067-3.417.134Zm11.054.067c-.268.134-.67.335-.871.469-.804.602-1.54 2.21-1.742 3.885-.134 1.139-.134 5.628 0 6.03.134.402.536.603 1.139.603.335 0 .536-.067.804-.268l.335-.268v-1.14l.067-1.138h5.091l.067 1.139v1.139l.335.268c.268.268.402.268.804.268s.536-.067.804-.268l.335-.268v-3.15c0-2.88 0-3.215-.2-3.952-.47-1.675-1.14-2.68-2.078-3.148-.603-.268-.603-.268-2.478-.335-1.675-.067-1.943-.067-2.412.134Zm4.02 2.478c.401.47.736 1.474.736 2.48l.067.803h-5.158v-.603c0-1.273.536-2.747 1.139-3.015.134-.067.804-.067 1.608-.067h1.34l.267.402Z"/></svg>