<svg xmlns="http://www.w3.org/2000/svg" width="32" height="33" fill="none"><path fill="#21A038" d="M28.66 6.717c.76.983 1.404 2.05 1.918 3.181L16.003 20.642l-6.09-3.818V12.23l6.09 3.819L28.66 6.717Z"/><path fill="url(#a)" d="M3.696 16.5c0-.206.005-.411.015-.615l-3.69-.18a15.956 15.956 0 0 0 4.666 12.107l2.618-2.618A12.261 12.261 0 0 1 3.696 16.5Z"/><path fill="url(#b)" d="M16 4.196c.207 0 .411.008.615.018L16.8.52A15.956 15.956 0 0 0 4.687 5.187l2.618 2.619A12.26 12.26 0 0 1 16 4.196Z"/><path fill="url(#c)" d="M16 28.804c-.206 0-.41 0-.615-.016l-.185 3.691a15.944 15.944 0 0 0 12.108-4.666l-2.613-2.617A12.266 12.266 0 0 1 16 28.804Z"/><path fill="url(#d)" d="m22.937 6.343 3.11-2.293A15.927 15.927 0 0 0 15.997.5v3.696a12.241 12.241 0 0 1 6.94 2.147Z"/><path fill="#21A038" d="M32 16.5a16.1 16.1 0 0 0-.251-2.867l-3.444 2.538v.33a12.272 12.272 0 0 1-4.053 9.119l2.484 2.745A15.959 15.959 0 0 0 32 16.5Z"/><path fill="url(#e)" d="M16 28.805a12.28 12.28 0 0 1-9.12-4.054l-2.744 2.483A15.957 15.957 0 0 0 16 32.5v-3.695Z"/><path fill="url(#f)" d="M7.75 7.38 5.267 4.635A15.957 15.957 0 0 0 0 16.5h3.696A12.274 12.274 0 0 1 7.75 7.38Z"/><defs><linearGradient id="a" x1="5.434" x2="1.396" y1="27.351" y2="15.677" gradientUnits="userSpaceOnUse"><stop offset=".14" stop-color="#F1E813"/><stop offset=".3" stop-color="#E6E418"/><stop offset=".58" stop-color="#C9DA26"/><stop offset=".89" stop-color="#A2CC39"/></linearGradient><linearGradient id="b" x1="5.742" x2="16.144" y1="5.841" y2="1.877" gradientUnits="userSpaceOnUse"><stop offset=".06" stop-color="#0FA7DF"/><stop offset=".54" stop-color="#0098F8"/><stop offset=".92" stop-color="#0290EA"/></linearGradient><linearGradient id="c" x1="14.957" x2="26.719" y1="30.269" y2="27.612" gradientUnits="userSpaceOnUse"><stop offset=".12" stop-color="#A2CC39"/><stop offset=".28" stop-color="#86C239"/><stop offset=".87" stop-color="#219F38"/></linearGradient><linearGradient id="d" x1="15.227" x2="25.284" y1="1.738" y2="4.841" gradientUnits="userSpaceOnUse"><stop offset=".06" stop-color="#0290EA"/><stop offset=".79" stop-color="#0C89CA"/></linearGradient><linearGradient id="e" x1="5.063" x2="16.009" y1="26.784" y2="30.875" gradientUnits="userSpaceOnUse"><stop offset=".13" stop-color="#F1E813"/><stop offset=".3" stop-color="#EAE616"/><stop offset=".53" stop-color="#D8DF1F"/><stop offset=".8" stop-color="#BAD52D"/><stop offset=".98" stop-color="#A2CC39"/></linearGradient><linearGradient id="f" x1="1.377" x2="5.771" y1="16.947" y2="5.517" gradientUnits="userSpaceOnUse"><stop offset=".07" stop-color="#A2CC39"/><stop offset=".26" stop-color="#81C45E"/><stop offset=".92" stop-color="#0FA7DF"/></linearGradient></defs></svg>