<svg xmlns="http://www.w3.org/2000/svg" width="32" height="32" fill="none"><g stroke="#fff" stroke-linecap="round" stroke-linejoin="round" stroke-miterlimit="10" clip-path="url(#a)"><path d="M29.89 15.369c0 7.67-6.219 13.89-13.89 13.89s-13.89-6.22-13.89-13.89"/><path d="M7.316 20.79C4.142 19.515 2.11 17.56 2.11 15.368c0-3.836 6.219-6.945 13.89-6.945 2.09 0 4.072.23 5.85.644M23.963 9.678c3.584 1.255 5.927 3.336 5.927 5.69 0 3.836-6.219 6.946-13.89 6.946-2.385 0-4.63-.301-6.59-.83"/><path d="M7.391 11.977c2.301-1.057 5.41-1.66 8.61-1.66 3.371 0 6.642.67 8.974 1.835 1.891.946 3.02 2.148 3.02 3.217 0 1.068-1.129 2.27-3.02 3.216-2.332 1.166-5.603 1.834-8.975 1.834s-6.643-.668-8.974-1.834c-1.892-.946-3.022-2.148-3.022-3.216 0-.739.54-1.542 1.499-2.28"/><path d="M27.02 17.2c-.18-.985-1.181-2.048-2.754-2.901-2.147-1.166-5.16-1.835-8.266-1.835s-6.119.669-8.266 1.835c-1.573.853-2.573 1.916-2.753 2.9M22.566 27.617v.634c0 .992-.58 1.89-1.483 2.3-1.063.485-2.726.98-5.083.98s-4.02-.495-5.083-.98a2.528 2.528 0 0 1-1.483-2.3v-.634"/><path d="M14.8 16c-.187 1.064-1.476 1.578-3.22 1.578-1.743 0-3.481-.57-3.093-1.578.316-.82 1.687-.664 3.346-1.2 1.957-.63 3.157.127 2.967 1.2ZM14.864 15.684s.568-.252.82-.694M20.293 15.306c0 .453-.565.82-1.262.82-.698 0-1.263-.367-1.263-.82 0-.454.565-.821 1.263-.821.697 0 1.262.367 1.262.82ZM24.271 16.505c0 .453-.565.82-1.263.82-.697 0-1.262-.367-1.262-.82 0-.453.565-.82 1.262-.82.698 0 1.263.367 1.263.82ZM18.336 18.02c0 .454-.565.821-1.263.821-.697 0-1.263-.367-1.263-.82 0-.454.566-.821 1.263-.821.698 0 1.263.367 1.263.82ZM16.253.469c0 .789-.505.789-.505 1.578s.505.789.505 1.578c0 .79-.505.79-.505 1.579 0 .789.505.789.505 1.578M19.22 2.047c0 .789.505.789.505 1.578 0 .79-.505.79-.505 1.579 0 .789.505.789.505 1.578M12.212 2.047c0 .789.505.789.505 1.578 0 .79-.505.79-.505 1.579 0 .789.505.789.505 1.578"/></g><defs><clipPath id="a"><path fill="#fff" d="M0 0h32v32H0z"/></clipPath></defs></svg>