<svg xmlns="http://www.w3.org/2000/svg" width="24" height="24" fill="none"><rect width="24" height="24" fill="#CBD3D9" rx="12"/><path fill="#fff" d="M15.26 14.96c-.802 0-1.525.354-2.027.918l-4.511-2.86a2.848 2.848 0 0 0 0-2.036l4.511-2.86c.502.563 1.225.918 2.027.918 1.51 0 2.74-1.258 2.74-2.806 0-1.547-1.23-2.806-2.74-2.806-1.511 0-2.74 1.26-2.74 2.806 0 .36.066.702.187 1.018l-4.512 2.861a2.706 2.706 0 0 0-2.026-.92c-1.511 0-2.74 1.26-2.74 2.807s1.229 2.806 2.74 2.806c.802 0 1.525-.355 2.026-.92l4.512 2.862c-.12.316-.187.659-.187 1.017 0 1.548 1.229 2.806 2.74 2.806 1.51 0 2.74-1.258 2.74-2.806 0-1.547-1.23-2.806-2.74-2.806Zm-1.741-8.726c0-.983.78-1.782 1.74-1.782s1.742.8 1.742 1.782c0 .983-.781 1.783-1.741 1.783-.96 0-1.741-.8-1.741-1.783Zm-7.35 7.549c-.96 0-1.741-.8-1.741-1.783 0-.983.78-1.783 1.741-1.783.96 0 1.741.8 1.741 1.783 0 .983-.781 1.783-1.741 1.783Zm7.35 3.982c0-.983.78-1.782 1.74-1.782s1.742.8 1.742 1.782c0 .983-.781 1.783-1.741 1.783-.96 0-1.741-.8-1.741-1.783Z"/></svg>