<svg xmlns="http://www.w3.org/2000/svg" width="70" height="71" fill="none"><g clip-path="url(#a)"><path fill="#151716" d="M29.543 6.396v-.72a.752.752 0 0 0-.751-.75h-5.158a.75.75 0 0 1-.75-.751V3.49a.752.752 0 0 0-.753-.752h-.675a.751.751 0 0 0-.75.751v2.933a.751.751 0 0 0 .75.75h2.924a.75.75 0 0 1 .75.752v.68a.75.75 0 0 0 .752.75h.72a.752.752 0 0 0 .751-.75v-.706a.751.751 0 0 1 .751-.75h.687a.752.752 0 0 0 .751-.752ZM21.145 22.665h3.487a.471.471 0 0 0 .471-.471v-1.257a.471.471 0 0 0-.471-.471h-1.273a.471.471 0 0 1-.472-.472v-1.28a.472.472 0 0 0-.471-.472h-3.489a.471.471 0 0 1-.471-.472v-3.457a.473.473 0 0 0-.471-.472h-1.282a.472.472 0 0 0-.472.472v3.477a.468.468 0 0 1-.47.471h-1.237a.471.471 0 0 0-.471.472v3.466a.473.473 0 0 0 .472.472h1.258a.471.471 0 0 0 .471-.471v-1.241a.472.472 0 0 1 .471-.471h3.477a.471.471 0 0 1 .471.471v1.235a.471.471 0 0 0 .472.471Z"/><path fill="#79C500" d="M21.5 31.542h.58a.804.804 0 0 0 .804-.804v-.567a.803.803 0 0 0-.804-.804h-.581a.804.804 0 0 0-.804.803v.567c0 .028.002.055.004.083a.804.804 0 0 0 .8.722Z"/><path fill="#151716" d="M8.118 11.595h9.593a.751.751 0 0 0 .751-.75V1.25a.751.751 0 0 0-.75-.751H8.117a.751.751 0 0 0-.75.751v9.593a.751.751 0 0 0 .75.751Zm1.493-8.11a.751.751 0 0 1 .751-.752h5.111a.752.752 0 0 1 .752.751v5.114a.752.752 0 0 1-.752.75h-5.111a.751.751 0 0 1-.751-.75V3.484ZM32.529 8.842h.74a.751.751 0 0 0 .752-.75V3.485a.75.75 0 0 1 .751-.751h5.112a.75.75 0 0 1 .75.75v4.606a.751.751 0 0 0 .752.751h.736a.751.751 0 0 0 .75-.75V1.25a.752.752 0 0 0-.75-.751h-9.593a.751.751 0 0 0-.752.751v6.84a.751.751 0 0 0 .752.751ZM17.636 24.91H8.17a.803.803 0 0 0-.804.803v9.49a.804.804 0 0 0 .804.803h9.465a.804.804 0 0 0 .803-.803v-9.49a.803.803 0 0 0-.803-.804Zm-1.409 8.055a.804.804 0 0 1-.803.803h-5.006a.804.804 0 0 1-.804-.803v-5.009a.803.803 0 0 1 .804-.803h5.007a.803.803 0 0 1 .803.803v5.009ZM7.838 22.69h1.285a.471.471 0 0 0 .471-.47v-1.28a.471.471 0 0 1 .472-.472h1.242a.471.471 0 0 0 .472-.471v-1.281a.472.472 0 0 0-.472-.471h-1.255a.471.471 0 0 1-.472-.472v-3.486a.471.471 0 0 0-.47-.472H7.838a.471.471 0 0 0-.472.472v7.933a.472.472 0 0 0 .471.47ZM28.806.5H25.87a.751.751 0 0 0-.75.751v.694c0 .415.335.751.75.751h2.936a.751.751 0 0 0 .751-.751v-.694a.751.751 0 0 0-.75-.751ZM26.359 24.936h-4.856a.803.803 0 0 0-.804.803v.593a.803.803 0 0 0 .804.803h2.788a.803.803 0 0 1 .803.804v5.053a.803.803 0 0 1-.803.804h-2.784a.805.805 0 0 0-.803.803v.577a.802.802 0 0 0 .803.803h4.852a.804.804 0 0 0 .803-.803V25.74a.803.803 0 0 0-.803-.803ZM26.691 13.805h-5.513a.471.471 0 0 0-.471.472v1.268c0 .26.211.472.471.472h5.513c.26 0 .472-.211.472-.472v-1.268a.471.471 0 0 0-.472-.472Z"/><path fill="#79C500" d="M21.458 11.568h.673a.752.752 0 0 0 .752-.752v-.674a.751.751 0 0 0-.75-.75h-.675a.751.751 0 0 0-.751.75v.674a.752.752 0 0 0 .751.752ZM13.537 13.834h-1.238a.471.471 0 0 0-.47.471v1.231c0 .26.21.472.47.472h1.238c.26 0 .471-.211.471-.472v-1.23a.471.471 0 0 0-.471-.472ZM12.573 7.137h.676a.752.752 0 0 0 .752-.752v-.681a.752.752 0 0 0-.752-.752h-.676a.75.75 0 0 0-.75.75v.684a.751.751 0 0 0 .75.751ZM37.664 4.954h-.675a.751.751 0 0 0-.75.751v.674c0 .415.336.751.75.751h.675a.751.751 0 0 0 .751-.75v-.675a.751.751 0 0 0-.75-.75ZM13.213 29.377h-.581a.803.803 0 0 0-.804.803v.557c0 .444.36.804.804.804h.581c.444 0 .803-.36.803-.804v-.557a.803.803 0 0 0-.803-.803Z"/><path fill="#151716" d="M57.068 10.756H35.016a5.57 5.57 0 0 0-5.565 5.564v48.616a5.57 5.57 0 0 0 5.565 5.564h22.052a5.57 5.57 0 0 0 5.565-5.564V16.32a5.57 5.57 0 0 0-5.565-5.564Zm3.338 54.18a3.341 3.341 0 0 1-3.338 3.337H35.016a3.341 3.341 0 0 1-3.338-3.337V16.32a3.34 3.34 0 0 1 3.337-3.338h22.053a3.34 3.34 0 0 1 3.338 3.338v48.616Z"/><path fill="#79C500" d="M47.43 64.363h-2.775a1.114 1.114 0 1 0 0 2.227h2.776a1.114 1.114 0 0 0 0-2.227ZM51.758 15.165h-11.43a1.113 1.113 0 0 0 0 2.227h11.43a1.113 1.113 0 1 0 0-2.227Z"/></g><defs><clipPath id="a"><path fill="#fff" d="M0 .5h70v70H0z"/></clipPath></defs></svg>