<svg xmlns="http://www.w3.org/2000/svg" width="70" height="71" fill="none"><g fill-rule="evenodd" clip-path="url(#a)" clip-rule="evenodd"><path fill="#151716" d="M42.383 70.5H5.879c-2.188 0-3.828-1.777-3.828-3.965v-50.86c0-2.187 1.64-3.827 3.828-3.827h8.34c.547 0 .957.41.957.957v4.511h16.68v-4.511c0-.547.41-.957.956-.957h9.57c2.188 0 3.829 1.64 3.829 3.828v50.86c0 2.187-1.64 3.964-3.828 3.964ZM5.879 13.762c-1.094 0-1.914.82-1.914 1.914v50.86c0 1.093.82 2.05 1.914 2.05h36.504c1.094 0 1.914-.957 1.914-2.05v-50.86c0-1.094-.82-1.914-1.914-1.914h-8.614v4.511c0 .547-.41.957-.956.957H14.218a.935.935 0 0 1-.957-.957v-4.511H5.879Z"/><path fill="#151716" d="M39.238 36.73H9.844a.935.935 0 0 1-.957-.957V23.332c0-.547.41-.957.957-.957h29.394c.547 0 .957.41.957.957v12.441c0 .547-.547.957-.957.957Zm-28.437-1.914h27.48V24.29h-27.48v10.527ZM15.996 48.078H9.16a.934.934 0 0 1-.957-.957v-5.605c0-.547.41-.957.957-.957h6.836c.547 0 .957.41.957.957v5.605c0 .547-.547.957-.957.957Zm-5.879-1.914h4.922v-3.691h-4.922v3.691ZM27.207 48.078h-6.836a.934.934 0 0 1-.957-.957v-5.605c0-.547.41-.957.957-.957h6.836c.547 0 .957.41.957.957v5.605c0 .547-.547.957-.957.957Zm-5.879-1.914h4.922v-3.691h-4.922v3.691ZM38.555 48.078h-6.836a.935.935 0 0 1-.957-.957v-5.605c0-.547.41-.957.957-.957h6.836c.547 0 .957.41.957.957v5.605c0 .547-.547.957-.957.957Zm-5.88-1.914h4.923v-3.691h-4.922v3.691ZM15.996 56.828H9.16a.934.934 0 0 1-.957-.957v-5.605c0-.547.41-.957.957-.957h6.836c.547 0 .957.41.957.957v5.605c0 .547-.547.957-.957.957Zm-5.879-1.914h4.922v-3.691h-4.922v3.691ZM27.207 56.828h-6.836a.934.934 0 0 1-.957-.957v-5.605c0-.547.41-.957.957-.957h6.836c.547 0 .957.41.957.957v5.605c0 .547-.547.957-.957.957Zm-5.879-1.914h4.922v-3.691h-4.922v3.691ZM38.555 56.828h-6.836a.935.935 0 0 1-.957-.957v-5.605c0-.547.41-.957.957-.957h6.836c.547 0 .957.41.957.957v5.605c0 .547-.547.957-.957.957Zm-5.88-1.914h4.923v-3.691h-4.922v3.691ZM15.996 65.441H9.16a.935.935 0 0 1-.957-.957V58.88c0-.547.41-.957.957-.957h6.836c.547 0 .957.41.957.957v5.605c0 .547-.547.957-.957.957Zm-5.879-1.914h4.922v-3.691h-4.922v3.691ZM27.207 65.441h-6.836a.935.935 0 0 1-.957-.957V58.88c0-.547.41-.957.957-.957h6.836c.547 0 .957.41.957.957v5.605c0 .547-.547.957-.957.957Zm-5.879-1.914h4.922v-3.691h-4.922v3.691ZM38.555 65.441h-6.836a.935.935 0 0 1-.957-.957V58.88c0-.547.41-.957.957-.957h6.836c.547 0 .957.41.957.957v5.605c0 .547-.547.957-.957.957Zm-5.88-1.914h4.923v-3.691h-4.922v3.691Z"/><path fill="#79C500" d="M16.27 30.578h-2.461a.934.934 0 0 1-.957-.957c0-.547.41-.957.957-.957h2.46c.547 0 .958.41.958.957 0 .547-.41.957-.957.957ZM22.559 30.578h-2.461a.935.935 0 0 1-.957-.957c0-.547.41-.957.957-.957h2.46c.547 0 .958.41.958.957 0 .547-.41.957-.957.957ZM28.848 30.578h-2.461a.934.934 0 0 1-.957-.957c0-.547.41-.957.957-.957h2.46c.547 0 .958.41.958.957 0 .547-.41.957-.957.957ZM35.137 30.578h-2.461a.934.934 0 0 1-.957-.957c0-.547.41-.957.957-.957h2.46c.548 0 .958.41.958.957 0 .547-.41.957-.957.957Z"/><path fill="#151716" d="M32.813 19.23H14.218a.935.935 0 0 1-.957-.957V1.457c0-.547.41-.957.957-.957h18.593c.547 0 .958.41.958.957v16.816c0 .547-.41.957-.958.957Zm-17.637-1.914h16.68V2.414h-16.68v14.902Z"/><path fill="#151716" d="M33.906 19.23H13.125a.935.935 0 0 1-.957-.957c0-.546.41-.957.957-.957h20.781c.547 0 .957.41.957.957 0 .547-.41.957-.957.957ZM66.992 58.469H45.254a.935.935 0 0 1-.957-.957V21.828c0-.547.41-.957.957-.957h21.738c.547 0 .957.41.957.957v35.684c0 .547-.41.957-.957.957Zm-20.781-1.914h19.824v-33.77H46.211v33.77Z"/><path fill="#151716" d="M62.754 58.469H56.19c-.547 0-.957-.547-.957-.957V21.828c0-.547.41-.957.957-.957h6.563c.41 0 .957.41.957.957v35.684c0 .41-.547.957-.957.957Zm-5.606-1.914h4.649v-33.77h-4.649v33.77Z"/><path fill="#79C500" d="M50.723 31.262a.935.935 0 0 1-.957-.957v-4.239c0-.546.41-.957.957-.957.547 0 .957.41.957.957v4.239c0 .547-.41.957-.957.957ZM50.723 38.508a.935.935 0 0 1-.957-.957v-4.239c0-.546.41-.956.957-.956.547 0 .957.41.957.956v4.239c0 .547-.41.957-.957.957ZM50.723 45.754a.935.935 0 0 1-.957-.957v-4.238c0-.547.41-.957.957-.957.547 0 .957.41.957.957v4.238c0 .547-.41.957-.957.957ZM28.848 6.242H18.047a.935.935 0 0 1-.957-.957c0-.547.41-.957.957-.957h10.8c.547 0 .958.41.958.957 0 .547-.41.957-.957.957ZM28.848 9.934H18.047a.935.935 0 0 1-.957-.957c0-.547.41-.957.957-.957h10.8c.547 0 .958.41.958.957 0 .546-.41.957-.957.957ZM28.848 13.625H18.047a.935.935 0 0 1-.957-.957c0-.547.41-.957.957-.957h10.8c.547 0 .958.41.958.957 0 .547-.41.957-.957.957Z"/></g><defs><clipPath id="a"><path fill="#fff" d="M0 .5h70v70H0z"/></clipPath></defs></svg>