<svg xmlns="http://www.w3.org/2000/svg" width="70" height="71" fill="none"><g clip-path="url(#a)"><path fill="#151716" d="M68.975.5H1.025C.46.5 0 .96 0 1.525v37c0 .566.46 1.025 1.025 1.025H3.36l.883 6.396c.07.508.505.885 1.016.885.134 0-1.05.152 26.572-3.66l2.884 6.431c-.075.807-.118 1.63-.124 2.462-.023 3.661 1.016 6.128 1.852 8.11.378.898.702 1.668.874 2.401h-1.858c-1.104 0-2.001.898-2.001 2v4.9c0 .566.46 1.025 1.025 1.025h15.271a1.025 1.025 0 1 0 0-2.05H35.508v-3.824h23.43v3.823h-4.716a1.025 1.025 0 0 0 0 2.051h5.741c.567 0 1.026-.459 1.026-1.025v-4.9c0-1.102-.898-2-2.001-2h-2.505l-.192-2.812a6.61 6.61 0 0 1 .015-1.236c.576-1.374 4.787-11.64 5.128-18.977h7.54c.567 0 1.026-.459 1.026-1.025v-37C70 .96 69.541.5 68.975.5ZM48.498 33.253v-6.247a4.753 4.753 0 0 0-2.803-4.33c.213-.863.321-1.751.321-2.65 0-6.075-4.942-11.017-11.016-11.017-4.947 0-9.315 3.328-10.623 8.093a1.025 1.025 0 1 0 1.977.543A8.985 8.985 0 0 1 35 11.06c4.944 0 8.965 4.022 8.965 8.965 0 .76-.094 1.51-.28 2.236a4.752 4.752 0 0 0-4.679 4.745v1.041A8.97 8.97 0 0 1 35 28.99a8.958 8.958 0 0 1-8.817-7.333 1.026 1.026 0 0 0-2.017.37A11.009 11.009 0 0 0 35 31.042c1.376 0 2.736-.258 4.006-.753v2.964H10.449a5.188 5.188 0 0 0-4.151-4.151V10.949a5.188 5.188 0 0 0 4.151-4.151h49.102a5.188 5.188 0 0 0 4.151 4.151v18.152a5.188 5.188 0 0 0-4.15 4.152H48.497Zm-14.551 9.625 2.181-.301c-.31 1.02-.6 2.123-.844 3.284l-1.337-2.983Zm20.34 15.254c-.075.595-.09 1.2-.042 1.784l.182 2.659H39.406c-.184-1.083-.62-2.117-1.075-3.197-.802-1.904-1.71-4.061-1.69-7.301.052-8.167 4.128-15.453 4.183-15.598.155-.4.233-.82.233-1.248v-8.225a2.698 2.698 0 0 1 2.695-2.695 2.698 2.698 0 0 1 2.696 2.695c.01 10.12-.217 6.088 1.098 11.751.117.488-.441-1.713 1.274 4.942a1.025 1.025 0 1 0 1.986-.512l-.937-3.637h9.512c-.386 7.564-5.044 18.203-5.093 18.582ZM67.95 37.499H49.34l-.565-2.196H60.48c.566 0 1.025-.459 1.025-1.025 0-1.837 1.385-3.221 3.222-3.221.566 0 1.025-.46 1.025-1.026V10.02c0-.566-.459-1.025-1.025-1.025-1.837 0-3.222-1.385-3.222-3.222 0-.566-.459-1.025-1.025-1.025H9.519c-.566 0-1.025.459-1.025 1.025 0 1.837-1.385 3.222-3.222 3.222-.566 0-1.025.459-1.025 1.025v20.012c0 .567.459 1.026 1.025 1.026 1.837 0 3.222 1.385 3.222 3.221 0 .566.459 1.026 1.025 1.026h29.485c-.024.47-.103.298-.964 2.196H17.368a1.025 1.025 0 0 0 0 2.05h19.809c-.107.274-.215.56-.323.857L6.134 44.65l-.705-5.1h7.47a1.025 1.025 0 0 0 0-2.05H2.05V2.55h65.898V37.5Z"/><path fill="#79C500" d="M54.867 16.876a3.152 3.152 0 0 0-3.148 3.149 3.152 3.152 0 0 0 3.148 3.149 3.152 3.152 0 0 0 3.15-3.149 3.152 3.152 0 0 0-3.15-3.149Zm0 4.247a1.1 1.1 0 0 1 0-2.196 1.1 1.1 0 0 1 1.099 1.098 1.1 1.1 0 0 1-1.099 1.098ZM15.133 16.876a3.152 3.152 0 0 0-3.149 3.149 3.152 3.152 0 0 0 3.15 3.149 3.152 3.152 0 0 0 3.148-3.149 3.152 3.152 0 0 0-3.149-3.149Zm0 4.247a1.1 1.1 0 0 1-1.098-1.098 1.1 1.1 0 0 1 1.098-1.098 1.1 1.1 0 0 1 1.098 1.098 1.1 1.1 0 0 1-1.098 1.098ZM35 16.5c-2.206 0-4 1.794-4 4s1.794 4 4 4 4-1.794 4-4-1.794-4-4-4Zm0 5.395c-.77 0-1.395-.626-1.395-1.395s.626-1.395 1.395-1.395 1.395.626 1.395 1.395c0 .77-.626 1.395-1.395 1.395ZM38.684 65.513a1.027 1.027 0 0 0-1.026 1.025 1.03 1.03 0 0 0 1.026 1.026 1.025 1.025 0 0 0 0-2.051Z"/></g><defs><clipPath id="a"><path fill="#fff" d="M0 .5h70v70H0z"/></clipPath></defs></svg>