<svg xmlns="http://www.w3.org/2000/svg" width="70" height="70" fill="none"><g clip-path="url(#a)"><path fill="#151716" d="M62.555 53.977a1.037 1.037 0 0 0-1.096.972l-.493 8.25a5.036 5.036 0 0 1-5.02 4.73H13.998a5.036 5.036 0 0 1-5.02-4.73l-.494-8.25a1.036 1.036 0 0 0-2.067.123l.493 8.251A7.11 7.11 0 0 0 14 70h41.946a7.11 7.11 0 0 0 7.088-6.677l.493-8.25c.034-.571-.4-1.062-.971-1.096Z"/><path fill="#79C500" d="M30.423 52.108h9.098a3.314 3.314 0 0 0 3.31-3.31 3.313 3.313 0 0 0-3.31-3.31h-9.098a3.313 3.313 0 0 0-3.31 3.31 3.313 3.313 0 0 0 3.31 3.31Zm0-4.55h9.098a1.24 1.24 0 0 1 0 2.478h-9.098a1.24 1.24 0 0 1 0-2.477Z"/><path fill="#151716" d="m63.034 29.359 1.269-21.223h1.45a2.555 2.555 0 0 0 2.552-2.552V2.552A2.555 2.555 0 0 0 65.753 0h-48.53a1.035 1.035 0 1 0 0 2.071h48.53c.265 0 .48.216.48.48v3.033a.481.481 0 0 1-.48.481H4.193a.481.481 0 0 1-.481-.48V2.551c0-.265.215-.48.48-.48h8.224a1.035 1.035 0 1 0 0-2.072H4.192a2.554 2.554 0 0 0-2.551 2.552v3.032a2.555 2.555 0 0 0 2.551 2.552h1.45l1.27 21.223a7.076 7.076 0 0 0 2.083 4.605H4.192a2.555 2.555 0 0 0-2.551 2.552v3.033A2.555 2.555 0 0 0 4.192 42.1h1.45l.481 8.032c.033.551.512.99 1.064.973a1.045 1.045 0 0 0 1.003-1.097L7.718 42.1h11.846l1.908 9.731a7.115 7.115 0 0 0 6.968 5.735h13.065a7.115 7.115 0 0 0 6.968-5.735l1.908-9.731h11.846l-.472 7.908a1.045 1.045 0 0 0 .972 1.096 1.045 1.045 0 0 0 1.095-.972l.48-8.032h1.45a2.555 2.555 0 0 0 2.552-2.552v-3.033a2.555 2.555 0 0 0-2.551-2.551H60.95a7.078 7.078 0 0 0 2.084-4.606ZM48.27 8.136l-1.83 9.333a5.04 5.04 0 0 1-4.936 4.062H28.44a5.04 5.04 0 0 1-4.936-4.062l-1.83-9.333h26.597Zm-1.83 43.297a5.04 5.04 0 0 1-4.936 4.063H28.44a5.04 5.04 0 0 1-4.935-4.063l-1.83-9.333H48.27l-1.83 9.334Zm19.312-15.398c.265 0 .48.216.48.481v3.033a.481.481 0 0 1-.48.48H4.193a.482.482 0 0 1-.481-.48v-3.033c0-.265.215-.48.48-.48h61.561Zm-9.807-2.07H14a5.036 5.036 0 0 1-5.02-4.73L7.717 8.136h11.846l1.908 9.731a7.115 7.115 0 0 0 6.968 5.735h13.065a7.115 7.115 0 0 0 6.968-5.734l1.908-9.732h11.846l-1.261 21.099a5.035 5.035 0 0 1-5.02 4.73Z"/><path fill="#79C500" d="M30.423 18.144h9.098a3.314 3.314 0 0 0 3.31-3.31 3.314 3.314 0 0 0-3.31-3.31h-9.098a3.314 3.314 0 0 0-3.31 3.31 3.313 3.313 0 0 0 3.31 3.31Zm0-4.55h9.098a1.24 1.24 0 0 1 1.239 1.24 1.24 1.24 0 0 1-1.24 1.239h-9.097a1.24 1.24 0 0 1 0-2.479Z"/></g><defs><clipPath id="a"><path fill="#fff" d="M0 0h70v70H0z"/></clipPath></defs></svg>