<svg xmlns="http://www.w3.org/2000/svg" width="70" height="70" fill="none"><path fill="#151716" d="m65.1 31.632-1.813-7.251c.496-.105.867-.545.867-1.072V22.14a4.609 4.609 0 0 0-4.603-4.603h-8.257v-2.412a2.268 2.268 0 0 0-2.265-2.265H6.941a2.268 2.268 0 0 0-2.265 2.265V35a1.096 1.096 0 0 0 2.192 0V15.125c0-.04.033-.073.073-.073H49.03c.04 0 .073.033.073.073V35a1.096 1.096 0 0 0 2.192 0v-1.242H64.23a3.587 3.587 0 0 1 3.405 2.484h-3.408c-.605 0-1.096.491-1.096 1.096v2.338a3.438 3.438 0 0 0 3.434 3.435h1.243v4.822h-2.866c-.942-2.718-3.526-4.676-6.56-4.676-3.035 0-5.619 1.958-6.56 4.676h-.528v-8.257a1.096 1.096 0 0 0-2.192 0v8.257h-22.74c-.942-2.718-3.526-4.676-6.56-4.676-3.035 0-5.62 1.958-6.56 4.676h-6.3a.073.073 0 0 1-.074-.073v-2.411h4.75a1.096 1.096 0 0 0 0-2.192H1.096a1.096 1.096 0 0 0 0 2.192h3.58v2.411a2.268 2.268 0 0 0 2.266 2.265h5.92l-.002.073a6.95 6.95 0 0 0 6.942 6.942 6.95 6.95 0 0 0 6.941-6.942l-.002-.073h24.701l-.002.073a6.95 6.95 0 0 0 6.942 6.942 6.95 6.95 0 0 0 6.941-6.942l-.002-.073h3.583c.605 0 1.096-.49 1.096-1.096V37.34a5.781 5.781 0 0 0-4.9-5.707ZM51.294 19.729h8.257a2.414 2.414 0 0 1 2.411 2.411v.073H51.294v-2.484Zm0 11.837v-7.16h9.74l1.79 7.16h-11.53ZM19.802 54.948a4.755 4.755 0 0 1-4.75-4.75c0-2.619 2.13-4.75 4.75-4.75 2.619 0 4.75 2.131 4.75 4.75 0 2.62-2.131 4.75-4.75 4.75Zm38.58 0a4.755 4.755 0 0 1-4.75-4.75c0-2.619 2.131-4.75 4.75-4.75s4.75 2.131 4.75 4.75c0 2.62-2.131 4.75-4.75 4.75Zm9.426-14.03h-1.242a1.244 1.244 0 0 1-1.243-1.242v-1.242h2.485v2.485Z"/><path fill="#79C500" d="M19.802 47.933a2.268 2.268 0 0 0-2.265 2.265 2.268 2.268 0 0 0 2.265 2.265 2.268 2.268 0 0 0 2.265-2.265 2.268 2.268 0 0 0-2.265-2.265ZM58.382 47.933a2.268 2.268 0 0 0-2.265 2.265 2.268 2.268 0 0 0 2.265 2.265 2.268 2.268 0 0 0 2.266-2.265 2.268 2.268 0 0 0-2.266-2.265Z"/><path fill="#151716" d="M45.522 43.257H29.155a1.096 1.096 0 0 0 0 2.192h16.367a1.096 1.096 0 0 0 0-2.192ZM17.463 38.58H3.434a1.096 1.096 0 0 0 0 2.193h14.03a1.096 1.096 0 0 0 0-2.193Z"/><path fill="#79C500" d="M38.114 23.703a1.096 1.096 0 0 0-1.55 0l-9.747 9.747-5.071-5.07a1.096 1.096 0 1 0-1.55 1.55l5.846 5.845a1.092 1.092 0 0 0 1.55 0l10.521-10.522a1.096 1.096 0 0 0 0-1.55Z"/></svg>