<svg xmlns="http://www.w3.org/2000/svg" width="70" height="70" fill="none"><g clip-path="url(#a)"><path fill="#151716" d="M53.594 33.906c-4.825 0-8.75 3.926-8.75 8.75 0 4.825 3.925 8.75 8.75 8.75 4.824 0 8.75-3.925 8.75-8.75 0-4.824-3.926-8.75-8.75-8.75Zm0 15.313a6.57 6.57 0 0 1-6.563-6.563 6.57 6.57 0 0 1 6.563-6.562 6.569 6.569 0 0 1 6.562 6.562 6.57 6.57 0 0 1-6.562 6.563Z"/><path fill="#151716" d="M58.307 13.125h-21.12c-.887 0-1.712.347-2.306.956a3.22 3.22 0 0 0-.975 2.325 3.285 3.285 0 0 0 3.28 3.282h20.782c1.467 0 2.838.568 3.868 1.607a5.393 5.393 0 0 1 1.6 3.861c0 2.56-1.46 4.82-3.739 5.903a13.088 13.088 0 0 0-5.663-1.517c-2.826-.1-5.56.73-7.905 2.375a13.442 13.442 0 0 0-3.838 4.177h-29.55c-2.022 0-3.767 1.505-3.975 3.434a3.841 3.841 0 0 0 3.812 4.222h17.226c2.655 0 4.924 1.945 5.168 4.426a4.88 4.88 0 0 1-1.253 3.799 4.923 4.923 0 0 1-3.642 1.619H22.64c-3.183 0-5.908 2.379-6.207 5.417a6.043 6.043 0 0 0 1.533 4.636 6.03 6.03 0 0 0 4.455 1.978h22.422c.603 0 1.094.491 1.094 1.094 0 .292-.112.56-.335.779a1.047 1.047 0 0 1-.759.314H22.75c-4.488 0-8.227-3.356-8.511-7.64a8.138 8.138 0 0 1 2.195-6.163 8.23 8.23 0 0 1 5.988-2.603h7.657a2.738 2.738 0 0 0 2.734-2.734 2.738 2.738 0 0 0-2.734-2.734H12.829c-3.159 0-5.828-2.243-6.21-5.216-.227-1.76.287-3.456 1.446-4.773a6.013 6.013 0 0 1 4.513-2.043h28.984a1.094 1.094 0 0 0 0-2.187H12.578a8.2 8.2 0 0 0-6.156 2.785 8.247 8.247 0 0 0-1.973 6.497c.522 4.062 4.124 7.124 8.38 7.124h17.248a.547.547 0 0 1 0 1.094h-7.656a10.428 10.428 0 0 0-7.586 3.296 10.305 10.305 0 0 0-2.78 7.802c.36 5.43 5.057 9.683 10.694 9.683h22.094c.887 0 1.712-.347 2.306-.956a3.22 3.22 0 0 0 .975-2.325 3.285 3.285 0 0 0-3.28-3.281H22.42a3.84 3.84 0 0 1-2.835-1.26 3.8 3.8 0 0 1-.976-2.954c.189-1.93 1.96-3.443 4.03-3.443h7.438a7.12 7.12 0 0 0 5.262-2.335 7.143 7.143 0 0 0 1.81-5.482c-.352-3.59-3.579-6.401-7.346-6.401H12.578c-.46 0-.905-.2-1.218-.546-.317-.35-.465-.8-.419-1.263.089-.825.88-1.473 1.8-1.473h28.505a12.727 12.727 0 0 0-.777 3.997 13.264 13.264 0 0 0 1.445 6.38l9.733 18.867a2.179 2.179 0 0 0 1.947 1.184c.826 0 1.57-.454 1.946-1.183l9.737-18.872a13.275 13.275 0 0 0 1.441-5.998c0-2.54-.712-4.952-2.06-7.057 2.807-1.861 5.341-6.127 5.341-9.349v-1.433c0-6.448-5.244-11.692-11.692-11.692Zm5.022 34.53L53.59 66.524l-9.732-18.864a11.075 11.075 0 0 1-1.204-5.32c.048-1.619.459-3.182 1.221-4.645a11.261 11.261 0 0 1 3.509-3.987 10.763 10.763 0 0 1 6.577-1.978c1.822.058 3.608.573 5.167 1.49a11.053 11.053 0 0 1 3.063 2.675 10.833 10.833 0 0 1 2.339 6.762c0 1.755-.406 3.438-1.202 5Zm4.483-21.405c0 2.521-2.27 6.24-4.492 7.607a13.218 13.218 0 0 0-1.565-1.462 8.673 8.673 0 0 0 3.87-7.239 7.56 7.56 0 0 0-2.242-5.407 7.567 7.567 0 0 0-5.415-2.249H37.187a1.096 1.096 0 0 1-1.094-1.094c0-.292.112-.56.335-.778.198-.204.467-.316.759-.316h21.12c5.241 0 9.505 4.264 9.505 9.505v1.433Z"/><path fill="#79C500" d="M16.953 0H15.86a2.738 2.738 0 0 0-2.734 2.734v.97c-6.115 1.545-10.534 7.21-10.9 13.983-.472.16-.903.413-1.25.769A3.223 3.223 0 0 0 0 20.78a3.285 3.285 0 0 0 3.281 3.282h26.25c.887 0 1.712-.347 2.306-.956a3.22 3.22 0 0 0 .976-2.326 3.273 3.273 0 0 0-2.225-3.09c-.366-6.778-4.785-12.443-10.9-13.988v-.969A2.738 2.738 0 0 0 16.953 0ZM15.86 2.188h1.094c.302 0 .547.244.547.546v.598c-.726-.06-1.463-.06-2.188 0v-.598c0-.301.245-.546.547-.546ZM28.393 17.5H14.219a1.094 1.094 0 0 0 0 2.188H29.53c.603 0 1.094.49 1.094 1.093 0 .292-.112.561-.335.779a1.047 1.047 0 0 1-.759.315H3.281a1.096 1.096 0 0 1-1.094-1.094c0-.292.112-.56.335-.778.198-.204.467-.316.76-.316h6.562a1.094 1.094 0 0 0 0-2.187H4.42c.447-5.96 4.51-10.858 9.998-11.852a11.22 11.22 0 0 1 3.981 0c5.484.994 9.547 5.892 9.994 11.852Z"/></g><defs><clipPath id="a"><path fill="#fff" d="M0 0h70v70H0z"/></clipPath></defs></svg>