<svg xmlns="http://www.w3.org/2000/svg" width="24" height="24" fill="none"><path fill="#fff" fill-rule="evenodd" d="M12 24c6.627 0 12-5.373 12-12S18.627 0 12 0 0 5.373 0 12s5.373 12 12 12Z" clip-rule="evenodd"/><path fill="#00AEF3" fill-rule="evenodd" d="M18.173 12.066c0 .444-.048.876-.14 1.293.235.467.367.993.367 1.55 0 1.928-1.585 3.491-3.54 3.491-.606 0-1.175-.15-1.674-.415a6.24 6.24 0 0 1-1.118.101c-3.372 0-6.105-2.694-6.105-6.02 0-.414.043-.819.123-1.209A3.443 3.443 0 0 1 5.6 9.091c0-1.928 1.585-3.49 3.541-3.49.692 0 1.337.196 1.883.535.34-.058.689-.089 1.044-.089 3.372 0 6.105 2.696 6.105 6.02Zm-4.215 3.805c.542-.221.96-.533 1.241-.928.283-.395.428-.847.428-1.342 0-.415-.084-.771-.248-1.061a2.07 2.07 0 0 0-.688-.716 4.335 4.335 0 0 0-1.046-.47 14.183 14.183 0 0 0-1.35-.348 21.72 21.72 0 0 1-.844-.205 2.681 2.681 0 0 1-.491-.188 1.081 1.081 0 0 1-.364-.273.52.52 0 0 1-.122-.35c0-.223.124-.413.378-.577.265-.171.621-.257 1.058-.257.472 0 .814.077 1.02.231.211.16.395.384.547.669.132.222.251.378.365.478.122.107.3.162.526.162.248 0 .46-.087.627-.259a.813.813 0 0 0 .25-.58c0-.224-.064-.455-.19-.687-.126-.23-.326-.45-.595-.658a3.151 3.151 0 0 0-1.007-.495c-.4-.123-.88-.185-1.425-.185-.683 0-1.285.093-1.791.278-.514.186-.913.46-1.186.811a1.935 1.935 0 0 0-.414 1.218c0 .477.133.883.395 1.207.258.318.611.573 1.049.756.428.18.966.338 1.6.472.466.096.842.189 1.12.274.265.083.485.201.652.354a.738.738 0 0 1 .235.57c0 .302-.147.548-.452.752-.311.21-.725.316-1.23.316-.366 0-.665-.053-.886-.155a1.358 1.358 0 0 1-.513-.392 2.989 2.989 0 0 1-.35-.612 1.38 1.38 0 0 0-.358-.516.815.815 0 0 0-.537-.184.901.901 0 0 0-.638.234.751.751 0 0 0-.254.567c0 .354.13.72.39 1.088.257.367.595.662 1.005.88.574.3 1.31.453 2.186.453.731 0 1.372-.113 1.907-.332Z" clip-rule="evenodd"/></svg>