<svg xmlns="http://www.w3.org/2000/svg" width="24" height="24" fill="none"><path fill="#00AEF3" fill-rule="evenodd" d="M12 24c6.627 0 12-5.373 12-12S18.627 0 12 0 0 5.373 0 12s5.373 12 12 12Z" clip-rule="evenodd"/><path fill="#fff" fill-rule="evenodd" d="M18.174 12.066c0 .444-.048.876-.14 1.293.235.467.368.993.368 1.55 0 1.928-1.585 3.491-3.54 3.491-.606 0-1.175-.15-1.674-.415-.363.066-.736.101-1.119.101-3.371 0-6.105-2.694-6.105-6.02 0-.414.043-.819.124-1.209a3.443 3.443 0 0 1-.486-1.766c0-1.928 1.585-3.49 3.54-3.49.692 0 1.338.196 1.883.535.34-.058.69-.089 1.044-.089 3.373 0 6.105 2.696 6.105 6.02Zm-4.214 3.805c.542-.221.959-.533 1.24-.928.284-.395.428-.847.428-1.342 0-.415-.083-.771-.248-1.061a2.07 2.07 0 0 0-.688-.716 4.334 4.334 0 0 0-1.045-.47 14.167 14.167 0 0 0-1.35-.348c-.39-.09-.675-.159-.844-.205a2.683 2.683 0 0 1-.492-.188 1.081 1.081 0 0 1-.363-.273.52.52 0 0 1-.123-.35c0-.223.125-.413.379-.577.264-.171.62-.257 1.057-.257.472 0 .815.077 1.02.231.212.16.396.384.548.669.132.222.25.378.365.478.122.107.3.162.525.162.249 0 .46-.087.627-.259a.813.813 0 0 0 .25-.58c0-.224-.064-.455-.19-.687-.125-.23-.325-.45-.594-.658a3.151 3.151 0 0 0-1.008-.495c-.4-.123-.88-.185-1.425-.185-.682 0-1.284.093-1.79.278-.515.186-.914.46-1.186.811a1.935 1.935 0 0 0-.415 1.218c0 .477.133.883.395 1.207.259.318.611.573 1.05.756.427.18.965.338 1.6.472.465.096.842.189 1.12.274.265.083.484.201.651.354a.738.738 0 0 1 .236.57c0 .302-.148.548-.453.752-.31.21-.724.316-1.23.316-.366 0-.665-.053-.886-.155a1.36 1.36 0 0 1-.513-.392 2.993 2.993 0 0 1-.35-.612 1.38 1.38 0 0 0-.358-.516.815.815 0 0 0-.537-.184.901.901 0 0 0-.637.234.751.751 0 0 0-.255.567c0 .354.131.72.39 1.088.257.367.595.662 1.005.88.575.3 1.31.453 2.187.453.73 0 1.372-.113 1.907-.332Z" clip-rule="evenodd"/></svg>