<svg xmlns="http://www.w3.org/2000/svg" width="50" height="50" fill="none"><g fill="#CBD3D9" clip-path="url(#a)"><path d="M25 50c13.785 0 25-11.215 25-25S38.785 0 25 0 0 11.215 0 25s11.215 25 25 25Zm0-47.502c12.408 0 22.502 10.094 22.502 22.502S37.408 47.502 25 47.502 2.498 37.408 2.498 25 12.592 2.498 25 2.498Z"/><path d="m13.255 25.887 7.024 7.025c.49.49 1.275.49 1.764 0 .49-.49.49-1.275 0-1.764l-4.894-4.894h18.71a1.253 1.253 0 1 0 0-2.508h-18.7l4.894-4.894c.49-.49.49-1.275 0-1.764a1.243 1.243 0 0 0-1.764 0l-7.024 7.025c-.245.245-.367.56-.367.887 0 .326.112.642.357.887Z"/></g><defs><clipPath id="a"><path fill="#fff" d="M50 0v50H0V0z"/></clipPath></defs></svg>