<svg xmlns="http://www.w3.org/2000/svg" width="50" height="50" fill="none"><g fill="#79C500" clip-path="url(#a)"><path d="M25 50C11.215 50 0 38.785 0 25S11.215 0 25 0s25 11.215 25 25-11.215 25-25 25Zm0-47.502C12.592 2.498 2.498 12.592 2.498 25S12.592 47.502 25 47.502 47.502 37.408 47.502 25 37.408 2.498 25 2.498Z"/><path d="m36.745 25.887-7.025 7.025c-.489.49-1.274.49-1.764 0a1.243 1.243 0 0 1 0-1.764l4.894-4.894H14.141a1.253 1.253 0 1 1 0-2.508h18.7l-4.895-4.894a1.243 1.243 0 0 1 0-1.764c.49-.49 1.275-.49 1.764 0l7.025 7.025c.245.245.367.56.367.887 0 .326-.112.642-.357.887Z"/></g><defs><clipPath id="a"><path fill="#fff" d="M0 0v50h50V0z"/></clipPath></defs></svg>