<svg xmlns="http://www.w3.org/2000/svg" width="24" height="24" fill="none"><path fill="url(#a)" fill-rule="evenodd" d="M12 24c6.627 0 12-5.373 12-12S18.627 0 12 0 0 5.373 0 12s5.373 12 12 12Z" clip-rule="evenodd"/><path fill="#C8DAEA" fill-rule="evenodd" d="M9.8 17.5c-.389 0-.323-.147-.457-.517L8.2 13.221 17 8" clip-rule="evenodd"/><path fill="#A9C9DD" fill-rule="evenodd" d="M9.8 17.5c.3 0 .432-.137.6-.3l1.6-1.556-1.996-1.203" clip-rule="evenodd"/><path fill="url(#b)" fill-rule="evenodd" d="m10.004 14.441 4.836 3.573c.552.304.95.147 1.088-.512l1.968-9.277c.202-.808-.308-1.174-.836-.935L5.501 11.748c-.789.316-.784.756-.143.952l2.966.926 6.867-4.332c.324-.197.622-.091.378.125" clip-rule="evenodd"/><defs><linearGradient id="a" x1="9.001" x2="3.001" y1="1.001" y2="15" gradientUnits="userSpaceOnUse"><stop stop-color="#37AEE2"/><stop offset="1" stop-color="#1E96C8"/></linearGradient><linearGradient id="b" x1="10.498" x2="11.78" y1="12.737" y2="16.885" gradientUnits="userSpaceOnUse"><stop stop-color="#EFF7FC"/><stop offset="1" stop-color="#fff"/></linearGradient></defs></svg>