<svg xmlns="http://www.w3.org/2000/svg" width="46" height="15" fill="none"><path fill="#3362AB" d="M42.533.7h-2.866c-.867 0-1.534.267-1.934 1.134L32.267 14.3h3.866s.667-1.666.8-2.066h4.734c.133.466.466 2 .466 2H45.6L42.533.7ZM38 9.434c.333-.8 1.467-3.8 1.467-3.8 0 .066.333-.8.466-1.267l.267 1.2s.733 3.267.867 3.933H38v-.066ZM32.532 9.834c0 2.8-2.534 4.666-6.467 4.666-1.667 0-3.267-.333-4.133-.733l.533-3.067.467.2c1.2.534 2 .734 3.466.734 1.067 0 2.2-.4 2.2-1.334 0-.6-.466-1-1.933-1.666-1.4-.667-3.267-1.734-3.267-3.667C23.398 2.3 25.998.5 29.665.5c1.4 0 2.6.267 3.333.6l-.533 2.934-.267-.267a7.164 7.164 0 0 0-2.8-.533c-1.4.066-2.066.666-2.066 1.2 0 .6.8 1.066 2.066 1.666 2.134 1 3.134 2.134 3.134 3.734Z"/><path fill="#F9B50B" d="M0 .834.067.568H5.8c.8 0 1.4.266 1.6 1.133l1.267 6C7.4 4.501 4.467 1.901 0 .834Z"/><path fill="#3362AB" d="m16.732.702-5.8 13.533H6.998L3.665 2.902c2.4 1.533 4.4 3.933 5.133 5.6l.4 1.4 3.6-9.267h3.934v.067ZM18.27.635h3.666l-2.333 13.6h-3.667L18.27.635Z"/></svg>