<svg xmlns="http://www.w3.org/2000/svg" width="32" height="32" fill="none"><path fill="#fff" d="M30.5 26H30V2.5a.5.5 0 0 0-.5-.5h-27a.5.5 0 0 0-.5.5V26h-.5a.5.5 0 0 0-.5.5v2a.5.5 0 0 0 .5.5H3v1.5a.5.5 0 0 0 .5.5h3a.5.5 0 0 0 .5-.5V29h7v1.5a.5.5 0 0 0 .5.5h3a.5.5 0 0 0 .5-.5V29h7v1.5a.5.5 0 0 0 .5.5h3a.5.5 0 0 0 .5-.5V29h1.5a.5.5 0 0 0 .5-.5v-2a.5.5 0 0 0-.5-.5ZM21 26v-7h2v2.5a.5.5 0 0 0 .5.5h3a.5.5 0 0 0 .5-.5V19h2v7h-8ZM6 19h2v2H6v-2Zm-3-1v-7h2v2.5a.5.5 0 0 0 .5.5h3a.5.5 0 0 0 .5-.5V11h2v7H3Zm3-7h2v2H6v-2Zm6 0h2v2.5a.5.5 0 0 0 .5.5h3a.5.5 0 0 0 .5-.5V11h2v7h-8v-7Zm3-8h2v2h-2V3Zm-.5 3h3a.5.5 0 0 0 .5-.5V3h2v7h-8V3h2v2.5a.5.5 0 0 0 .5.5Zm.5 5h2v2h-2v-2Zm9 0h2v2h-2v-2Zm-.5 3h3a.5.5 0 0 0 .5-.5V11h2v7h-8v-7h2v2.5a.5.5 0 0 0 .5.5Zm.5 5h2v2h-2v-2Zm-9 0h2v2h-2v-2Zm-1 0v2.5a.5.5 0 0 0 .5.5h3a.5.5 0 0 0 .5-.5V19h2v7h-8v-7h2Zm15-9h-8V3h2v2.5a.5.5 0 0 0 .5.5h3a.5.5 0 0 0 .5-.5V3h2v7Zm-5-7h2v2h-2V3ZM6 3h2v2H6V3ZM5 3v2.5a.5.5 0 0 0 .5.5h3a.5.5 0 0 0 .5-.5V3h2v7H3V3h2ZM3 19h2v2.5a.5.5 0 0 0 .5.5h3a.5.5 0 0 0 .5-.5V19h2v7H3v-7Zm3 11H4v-1h2v1Zm11 0h-2v-1h2v1Zm11 0h-2v-1h2v1Zm2-2H2v-1h28v1Z"/><path fill="#fff" d="M27 24h1v1h-1v-1ZM18 24h1v1h-1v-1ZM27 16h1v1h-1v-1ZM18 16h1v1h-1v-1ZM9 24h1v1H9v-1ZM9 16h1v1H9v-1ZM27 8h1v1h-1V8ZM18 8h1v1h-1V8ZM9 8h1v1H9V8Z"/></svg>