<svg xmlns="http://www.w3.org/2000/svg" width="30" height="29" fill="none"><path fill="#E47418" d="M29.948 11.901c-.156-.935-1.019-1.558-2.195-1.558h-1.097c-.706-.078-.863.155-.863.701v8.105c0 1.402-1.41 2.883-3.057 3.195-5.175 1.169-10.349 2.26-15.523 3.429-.55.156-1.176.156-1.803.156-.236 0-.628-.156-.706-.39-.078-.156.157-.468.314-.623.235-.156.548-.312.862-.468.94-.312 1.96-.623 2.9-.935 3.842-1.247 7.684-2.494 11.525-3.819 1.725-.545 2.666-1.714 2.666-3.195.078-4.676 0-9.43 0-14.105 0-.78-.392-1.403-1.254-1.715-1.02-.39-1.96-.078-2.823.312C13.406 3.563 7.997 6.134 2.51 8.706.94 9.486 0 10.576 0 12.135v13.326c0 .234 0 .468.078.623.55 1.481 1.96 2.416 3.842 2.416h22.971c.862 0 1.568-.156 2.195-.701.784-.624.784-1.48.784-2.26V12.525c.157-.078.157-.39.078-.624ZM13.955 10.5c.392-1.014 1.255-1.637 2.509-1.793.862-.078 1.568.39 1.725 1.169.156 1.169-1.255 2.572-2.744 2.572-1.176 0-1.882-.857-1.49-1.948Z"/></svg>